<?xml version="1.0" ?><!DOCTYPE svg  PUBLIC '-//W3C//DTD SVG 1.1//EN'  'http://www.w3.org/Graphics/SVG/1.1/DTD/svg11.dtd'><svg enable-background="new 0 0 128 128" id="Слой_1" version="1.1" viewBox="0 0 128 128" xml:space="preserve" xmlns="http://www.w3.org/2000/svg" xmlns:xlink="http://www.w3.org/1999/xlink"><g><path d="M17,63.8V126h94V63.8l8,8l7.8-7.8L111,48.2V12H92v17.2l-28-28L1.2,64L9,71.8L17,63.8z M107,60v62H21V60   h-0.2L64,16.8L107.2,60H107z M64,6.8l32,32V16h11v33.8L121.2,64l-2.2,2.2l-55-55l-55,55L6.8,64L64,6.8z" fill="#3EBBC4"/><path d="M56.8,55v5.3c-1,0.3-2,0.8-3,1.3L50,57.8L39.8,68l3.8,3.8c-0.5,1-0.9,2-1.3,3H37v14.4h5.3   c0.3,1,0.8,2,1.3,3L39.8,96L50,106.2l3.8-3.8c1,0.5,2,0.9,3,1.3v5.3h14.4v-5.3c1-0.3,2-0.8,3-1.3l3.8,3.8L88.2,96l-3.8-3.8   c0.5-1,0.9-2,1.3-3H91V74.8h-5.3c-0.3-1-0.8-2-1.3-3l3.8-3.8L78,57.8l-3.8,3.8c-1-0.5-2-0.9-3-1.3V55H56.8z M73.6,65.8l1.3,0.8   l3.1-3.1l4.5,4.5l-3.1,3.1l0.8,1.3c0.9,1.5,1.6,3.2,2,4.9l0.4,1.5H87v6.4h-4.4l-0.4,1.5c-0.4,1.7-1.1,3.3-2,4.9l-0.8,1.3l3.1,3.1   l-4.5,4.5l-3.1-3.1l-1.3,0.8c-1.5,0.9-3.2,1.6-4.9,2l-1.5,0.4v4.4h-6.4v-4.4l-1.5-0.4c-1.7-0.4-3.3-1.1-4.9-2l-1.3-0.8l-3.1,3.1   L45.5,96l3.1-3.1l-0.8-1.3c-0.9-1.5-1.6-3.2-2-4.9l-0.4-1.5H41v-6.4h4.4l0.4-1.5c0.4-1.7,1.1-3.3,2-4.9l0.8-1.3L45.5,68l4.5-4.5   l3.1,3.1l1.3-0.8c1.5-0.9,3.2-1.6,4.9-2l1.5-0.4V59h6.4v4.4l1.5,0.4C70.4,64.2,72,64.9,73.6,65.8z" fill="#3EBBC4"/><path d="M51.6,82c0,6.8,5.6,12.4,12.4,12.4S76.4,88.8,76.4,82S70.8,69.6,64,69.6S51.6,75.2,51.6,82z M72.4,82   c0,4.6-3.8,8.4-8.4,8.4s-8.4-3.8-8.4-8.4s3.8-8.4,8.4-8.4S72.4,77.4,72.4,82z" fill="#3EBBC4"/></g></svg>