<?xml version="1.0" encoding="UTF-8" standalone="no"?>
<svg
   xmlns:dc="http://purl.org/dc/elements/1.1/"
   xmlns:cc="http://creativecommons.org/ns#"
   xmlns:rdf="http://www.w3.org/1999/02/22-rdf-syntax-ns#"
   xmlns:svg="http://www.w3.org/2000/svg"
   xmlns="http://www.w3.org/2000/svg"
   xmlns:sodipodi="http://sodipodi.sourceforge.net/DTD/sodipodi-0.dtd"
   xmlns:inkscape="http://www.inkscape.org/namespaces/inkscape"
   inkscape:version="1.0 (1.0+r73+1)"
   sodipodi:docname="icon-profissao-Engenheiro_vidraceiro.svg"
   xml:space="preserve"
   viewBox="0 0 128 128"
   version="1.1"
   id="Слой_1"
   enable-background="new 0 0 128 128"><metadata
     id="metadata576"><rdf:RDF><cc:Work
         rdf:about=""><dc:format>image/svg+xml</dc:format><dc:type
           rdf:resource="http://purl.org/dc/dcmitype/StillImage" /></cc:Work></rdf:RDF></metadata><defs
     id="defs574" /><sodipodi:namedview
     inkscape:current-layer="Слой_1"
     inkscape:window-maximized="0"
     inkscape:window-y="73"
     inkscape:window-x="0"
     inkscape:cy="72.748271"
     inkscape:cx="-21.012239"
     inkscape:zoom="1.3120145"
     showgrid="false"
     id="namedview572"
     inkscape:window-height="480"
     inkscape:window-width="703"
     inkscape:pageshadow="2"
     inkscape:pageopacity="0"
     guidetolerance="10"
     gridtolerance="10"
     objecttolerance="10"
     borderopacity="1"
     bordercolor="#666666"
     pagecolor="#ffffff" /><g
     style="fill:#ffffff"
     id="g569"><g
       style="fill:#ffffff"
       id="g497"
       opacity="0.3"><path
         style="fill:#ffffff"
         id="path495"
         fill="#3EBBC4"
         d="M42,126H3v-16h39V126z M7,122h31v-8H7V122z" /></g><g
       style="fill:#ffffff"
       id="g501"
       opacity="0.3"><path
         style="fill:#ffffff"
         id="path499"
         fill="#3EBBC4"
         d="M83,126H44v-16h39V126z M48,122h31v-8H48V122z" /></g><g
       style="fill:#ffffff"
       id="g505"
       opacity="0.3"><path
         style="fill:#ffffff"
         id="path503"
         fill="#3EBBC4"
         d="M124,126H85v-16h39V126z M89,122h31v-8H89V122z" /></g><g
       style="fill:#ffffff"
       id="g509"
       opacity="0.3"><polygon
         style="fill:#ffffff"
         id="polygon507"
         points="124,108 105,108 105,92 124,92 124,96 109,96 109,104 124,104   "
         fill="#3EBBC4" /></g><g
       style="fill:#ffffff"
       id="g513"
       opacity="0.3"><polygon
         style="fill:#ffffff"
         id="polygon511"
         points="21,108 3,108 3,104 17,104 17,96 3,96 3,92 21,92   "
         fill="#3EBBC4" /></g><g
       style="fill:#ffffff"
       id="g517"
       opacity="0.3"><path
         style="fill:#ffffff"
         id="path515"
         fill="#3EBBC4"
         d="M21,90H3V74h18V90z M7,86h10v-8H7V86z" /></g><g
       style="fill:#ffffff"
       id="g521"
       opacity="0.3"><path
         style="fill:#ffffff"
         id="path519"
         fill="#3EBBC4"
         d="M124,90h-19V74h19V90z M109,86h11v-8h-11V86z" /></g><g
       style="fill:#ffffff"
       id="g525"
       opacity="0.3"><polygon
         style="fill:#ffffff"
         id="polygon523"
         points="124,72 105,72 105,56 124,56 124,60 109,60 109,68 124,68   "
         fill="#3EBBC4" /></g><g
       style="fill:#ffffff"
       id="g529"
       opacity="0.3"><polygon
         style="fill:#ffffff"
         id="polygon527"
         points="21,72 3,72 3,68 17,68 17,60 3,60 3,56 21,56   "
         fill="#3EBBC4" /></g><g
       style="fill:#ffffff"
       id="g533"
       opacity="0.3"><path
         style="fill:#ffffff"
         id="path531"
         fill="#3EBBC4"
         d="M21,54H3V38h18V54z M7,50h10v-8H7V50z" /></g><g
       style="fill:#ffffff"
       id="g537"
       opacity="0.3"><path
         style="fill:#ffffff"
         id="path535"
         fill="#3EBBC4"
         d="M124,54h-19V38h19V54z M109,50h11v-8h-11V50z" /></g><g
       style="fill:#ffffff"
       id="g541"
       opacity="0.3"><polygon
         style="fill:#ffffff"
         id="polygon539"
         points="124,36 105,36 105,20 124,20 124,24 109,24 109,32 124,32   "
         fill="#3EBBC4" /></g><g
       style="fill:#ffffff"
       id="g545"
       opacity="0.3"><polygon
         style="fill:#ffffff"
         id="polygon543"
         points="21,36 3,36 3,32 17,32 17,24 3,24 3,20 21,20   "
         fill="#3EBBC4" /></g><g
       style="fill:#ffffff"
       id="g549"
       opacity="0.3"><path
         style="fill:#ffffff"
         id="path547"
         fill="#3EBBC4"
         d="M42,18H3V2h39V18z M7,14h31V6H7V14z" /></g><g
       style="fill:#ffffff"
       id="g553"
       opacity="0.3"><path
         style="fill:#ffffff"
         id="path551"
         fill="#3EBBC4"
         d="M83,18H44V2h39V18z M48,14h31V6H48V14z" /></g><g
       style="fill:#ffffff"
       id="g557"
       opacity="0.3"><path
         style="fill:#ffffff"
         id="path555"
         fill="#3EBBC4"
         d="M124,18H85V2h39V18z M89,14h31V6H89V14z" /></g><path
       style="fill:#ffffff"
       id="path559"
       fill="#3EBBC4"
       d="M103,20H23v81h0v7h80v-7h0V20z M99,104H27v-3h72V104z M99,97H65V24h34V97z M27,24h34v73H27V24z" /><g
       style="fill:#ffffff"
       id="g563"
       opacity="0.3"><rect
         style="fill:#ffffff"
         id="rect561"
         y="27"
         x="86"
         width="4"
         transform="matrix(0.946 0.3242 -0.3242 0.946 19.5019 -26.0748)"
         height="37"
         fill="#3EBBC4" /></g><g
       style="fill:#ffffff"
       id="g567"
       opacity="0.3"><rect
         style="fill:#ffffff"
         id="rect565"
         y="27.6"
         x="79.5"
         width="4"
         transform="matrix(0.9417 0.3364 -0.3364 0.9417 16.5242 -25.3826)"
         height="14.9"
         fill="#3EBBC4" /></g></g></svg>
