<?xml version="1.0" encoding="UTF-8" standalone="no"?>
<svg
   xmlns:dc="http://purl.org/dc/elements/1.1/"
   xmlns:cc="http://creativecommons.org/ns#"
   xmlns:rdf="http://www.w3.org/1999/02/22-rdf-syntax-ns#"
   xmlns:svg="http://www.w3.org/2000/svg"
   xmlns="http://www.w3.org/2000/svg"
   xmlns:sodipodi="http://sodipodi.sourceforge.net/DTD/sodipodi-0.dtd"
   xmlns:inkscape="http://www.inkscape.org/namespaces/inkscape"
   inkscape:version="1.0 (1.0+r73+1)"
   sodipodi:docname="icon-profissao-Engenheiro_servente.svg"
   xml:space="preserve"
   viewBox="0 0 128 128"
   version="1.1"
   id="Слой_1"
   enable-background="new 0 0 128 128"><metadata
     id="metadata180"><rdf:RDF><cc:Work
         rdf:about=""><dc:format>image/svg+xml</dc:format><dc:type
           rdf:resource="http://purl.org/dc/dcmitype/StillImage" /></cc:Work></rdf:RDF></metadata><defs
     id="defs178" /><sodipodi:namedview
     inkscape:current-layer="Слой_1"
     inkscape:window-maximized="0"
     inkscape:window-y="99"
     inkscape:window-x="348"
     inkscape:cy="64"
     inkscape:cx="64"
     inkscape:zoom="3.7109375"
     showgrid="false"
     id="namedview176"
     inkscape:window-height="480"
     inkscape:window-width="742"
     inkscape:pageshadow="2"
     inkscape:pageopacity="0"
     guidetolerance="10"
     gridtolerance="10"
     objecttolerance="10"
     borderopacity="1"
     bordercolor="#666666"
     pagecolor="#ffffff" /><g
     style="fill:#ffffff"
     id="g173"><path
       style="fill:#ffffff"
       id="path169"
       fill="#3EBBC4"
       d="m 64,109.3 c 19.5,0 39.1,-3.3 57.7,-9.8 L 123,99 V 86.1 l -7,-2 v -8.5 c 0,-20 -11.5,-38.2 -29.5,-46.9 v -2.1 c 0,-3.9 -3.1,-7 -7,-7 H 66 v -4 h -4 v 4 H 48.5 c -3.9,0 -7,3.1 -7,7 v 2.1 C 23.5,37.4 12,55.7 12,75.6 v 8.5 l -7,2 V 99 l 1.3,0.5 c 18.6,6.6 38.2,9.8 57.7,9.8 z M 9,89.2 l 7,-2 V 75.6 C 16,57.8 25.9,41.5 41.5,33.2 v 18.4 h 4 v -25 c 0,-1.7 1.3,-3 3,-3 H 62 v 42 h 4 v -42 h 13.5 c 1.7,0 3,1.3 3,3 v 25 h 4 V 33.2 c 15.6,8.3 25.5,24.6 25.5,42.4 v 11.5 l 7,2 v 7.1 c -35.5,12.1 -74.5,12.1 -110,0 z" /><rect
       style="fill:#ffffff"
       id="rect171"
       y="83.599998"
       x="29"
       width="70"
       height="4"
       fill="#3EBBC4" /></g></svg>
