<?xml version="1.0" ?><svg viewBox="0 0 64 64" xmlns="http://www.w3.org/2000/svg"><title/><g data-name="12" id="_12"><path d="M34,42.72a1,1,0,0,0,.41-.08L44.75,38a1,1,0,0,0-.82-1.83L33.59,40.81A1,1,0,0,0,34,42.72Z"/><path d="M27,45.85a1,1,0,0,0,.41-.09l4-1.78a1,1,0,0,0,.5-1.32,1,1,0,0,0-1.32-.51l-4,1.78a1,1,0,0,0-.5,1.32A1,1,0,0,0,27,45.85Z"/><path d="M23.59,45.27l-9,4A1,1,0,0,0,15,51.21a1,1,0,0,0,.41-.09l9-4a1,1,0,0,0-.82-1.83Z"/><path d="M60.64,11a4.27,4.27,0,0,0-1.26-3L56.65,5.2a4.3,4.3,0,0,0-6.08,0l-9.19,9.2a4.29,4.29,0,0,0,0,6.07l.65.66-4.12,4.13L26.3,13.65a1,1,0,0,0-1.62.3l-20,44.71a1,1,0,0,0,.21,1.11,1,1,0,0,0,.71.29A1,1,0,0,0,6,60L50.75,40a1,1,0,0,0,.3-1.62L39.32,26.67l4.13-4.13.66.66a4.29,4.29,0,0,0,6.07,0l4-4h0l3.5-3.5h0L59.38,14A4.27,4.27,0,0,0,60.64,11Zm-53,46.12,18.3-41,22.7,22.7Zm45.87-40-6-6L49.59,9l6,6Zm-4.71,4.72a2.31,2.31,0,0,1-3.25,0l-2.73-2.73a2.31,2.31,0,0,1,0-3.25l3.3-3.3,6,6ZM58,12.59l-1,1-6-6,1-1a2.3,2.3,0,0,1,3.24,0L58,9.35a2.27,2.27,0,0,1,0,3.24Z"/><path d="M45.48,14.29l-1.1,1.11a4.28,4.28,0,0,0-1.2,3.77,1,1,0,0,0,1,.83h.17a1,1,0,0,0,.81-1.16,2.29,2.29,0,0,1,.64-2l1.1-1.1a1,1,0,0,0,0-1.42A1,1,0,0,0,45.48,14.29Z"/></g></svg>