<?xml version="1.0" encoding="UTF-8" standalone="no"?>
<svg
   xmlns:dc="http://purl.org/dc/elements/1.1/"
   xmlns:cc="http://creativecommons.org/ns#"
   xmlns:rdf="http://www.w3.org/1999/02/22-rdf-syntax-ns#"
   xmlns:svg="http://www.w3.org/2000/svg"
   xmlns="http://www.w3.org/2000/svg"
   xmlns:sodipodi="http://sodipodi.sourceforge.net/DTD/sodipodi-0.dtd"
   xmlns:inkscape="http://www.inkscape.org/namespaces/inkscape"
   inkscape:version="1.0 (1.0+r73+1)"
   sodipodi:docname="icon-profissao-mestre_de_obra.svg"
   id="svg819"
   version="1.1"
   viewBox="0 0 302 302">
  <metadata
     id="metadata823">
    <rdf:RDF>
      <cc:Work
         rdf:about="">
        <dc:format>image/svg+xml</dc:format>
        <dc:type
           rdf:resource="http://purl.org/dc/dcmitype/StillImage" />
        <dc:title>icon</dc:title>
      </cc:Work>
    </rdf:RDF>
  </metadata>
  <sodipodi:namedview
     inkscape:current-layer="svg819"
     inkscape:window-maximized="1"
     inkscape:window-y="73"
     inkscape:window-x="0"
     inkscape:cy="151"
     inkscape:cx="164.07369"
     inkscape:zoom="1.5728477"
     showgrid="false"
     id="namedview821"
     inkscape:window-height="669"
     inkscape:window-width="1280"
     inkscape:pageshadow="2"
     inkscape:pageopacity="0"
     guidetolerance="10"
     gridtolerance="10"
     objecttolerance="10"
     borderopacity="1"
     bordercolor="#666666"
     pagecolor="#ffffff" />
  <defs
     id="defs807">
    <style
       id="style805">.a{fill:#f15a24;}.b{fill:#c9e1eb;}.c{fill:#a93f19;}</style>
  </defs>
  <title
     id="title809">icon</title>
  <path
     style="fill:#ffffff"
     id="path813"
     d="M239.23,184.84H238V162.47A86.66,86.66,0,0,0,181.66,81.1l.5-4.44a7.84,7.84,0,0,0-7.79-8.71H127.63a7.84,7.84,0,0,0-7.79,8.71l.5,4.44a86.64,86.64,0,0,0-56.29,81.37v22.37H62.77a17.61,17.61,0,0,0,0,35.21H239.23a17.61,17.61,0,0,0,0-35.21ZM205,136.66a3.48,3.48,0,0,1-5.13,0l0-37.54q2.53,1.95,4.89,4.08ZM127.63,74.95h46.74a.84.84,0,0,1,.83.93l-9.82,87.31a.84.84,0,0,1-.83.74h-27.1a.84.84,0,0,1-.83-.74L126.8,75.88A.84.84,0,0,1,127.63,74.95Zm-25.5,24.31v37.4a4.45,4.45,0,0,1-2.57,1.13,3.56,3.56,0,0,1-2.25-1.06V103.38ZM91.31,109.2v27.7c0,4.21,4.88,6.89,8.25,6.89s8.57-2.69,8.57-6.89V95a80.11,80.11,0,0,1,13-6.66L129.66,164a7.83,7.83,0,0,0,7.79,7h27.1a7.83,7.83,0,0,0,7.79-7l8.51-75.68a80.08,80.08,0,0,1,13,6.64l0,42c0,4.21,5.08,6.89,8.57,6.89s8.57-2.69,8.57-6.92l-.23-27.57A79.79,79.79,0,0,1,231,162.47v22.37H71.05V162.47A79.78,79.78,0,0,1,91.31,109.2ZM239.23,213.05H62.77a10.61,10.61,0,0,1,0-21.21H239.23a10.61,10.61,0,0,1,0,21.21Z"
     class="b" />
</svg>
