<?xml version="1.0" encoding="UTF-8" standalone="no"?>
<svg
   xmlns:dc="http://purl.org/dc/elements/1.1/"
   xmlns:cc="http://creativecommons.org/ns#"
   xmlns:rdf="http://www.w3.org/1999/02/22-rdf-syntax-ns#"
   xmlns:svg="http://www.w3.org/2000/svg"
   xmlns="http://www.w3.org/2000/svg"
   xmlns:sodipodi="http://sodipodi.sourceforge.net/DTD/sodipodi-0.dtd"
   xmlns:inkscape="http://www.inkscape.org/namespaces/inkscape"
   inkscape:version="1.0 (1.0+r73+1)"
   sodipodi:docname="icon-profissao-soldador.svg"
   xml:space="preserve"
   style="enable-background:new 0 0 512 512;"
   viewBox="0 0 512 512"
   y="0px"
   x="0px"
   id="Capa_1"
   version="1.1"><metadata
   id="metadata643"><rdf:RDF><cc:Work
       rdf:about=""><dc:format>image/svg+xml</dc:format><dc:type
         rdf:resource="http://purl.org/dc/dcmitype/StillImage" /></cc:Work></rdf:RDF></metadata><defs
   id="defs641" /><sodipodi:namedview
   inkscape:current-layer="Capa_1"
   inkscape:window-maximized="0"
   inkscape:window-y="73"
   inkscape:window-x="0"
   inkscape:cy="773.38947"
   inkscape:cx="256"
   inkscape:zoom="0.92773438"
   showgrid="false"
   id="namedview639"
   inkscape:window-height="480"
   inkscape:window-width="703"
   inkscape:pageshadow="2"
   inkscape:pageopacity="0"
   guidetolerance="10"
   gridtolerance="10"
   objecttolerance="10"
   borderopacity="1"
   bordercolor="#666666"
   pagecolor="#ffffff" />
<g
   style="fill:#ffffff"
   id="g582">
	<g
   style="fill:#ffffff"
   id="g580">
		<rect
   style="fill:#ffffff"
   id="rect578"
   height="30"
   width="30"
   y="390"
   x="181" />
	</g>
</g>
<g
   style="fill:#ffffff"
   id="g588">
	<g
   style="fill:#ffffff"
   id="g586">
		<rect
   style="fill:#ffffff"
   id="rect584"
   height="30"
   width="30"
   y="390"
   x="241" />
	</g>
</g>
<g
   style="fill:#ffffff"
   id="g594">
	<g
   style="fill:#ffffff"
   id="g592">
		<rect
   style="fill:#ffffff"
   id="rect590"
   height="30"
   width="30"
   y="390"
   x="301" />
	</g>
</g>
<g
   style="fill:#ffffff"
   id="g600">
	<g
   style="fill:#ffffff"
   id="g598">
		<path
   style="fill:#ffffff"
   id="path596"
   d="M451,210v-30h-30v-45c0-57.897-47.103-105-105-105h-15V0h-90v30h-15C138.103,30,91,77.103,91,135v45H61v30h30v60H61v30h30    v45c0,90.841,73.471,167,165,167c91.564,0,165-76.199,165-167v-45h30v-30h-30v-60H451z M391,345c0,75.542-60.561,137-135,137    s-135-61.458-135-137c0-63.925,0-94.093,0-135h270C391,250.441,391,300.361,391,345z M391,180H121v-45    c0-24.484,11.796-46.262,30-59.959V150h30V61.509c4.848-0.988,9.864-1.509,15-1.509h15v60h30V30h30v90h30V60h15    c5.136,0,10.152,0.521,15,1.509V150h30V75.041c18.204,13.697,30,35.475,30,59.959V180z" />
	</g>
</g>
<g
   style="fill:#ffffff"
   id="g606">
	<g
   style="fill:#ffffff"
   id="g604">
		<path
   style="fill:#ffffff"
   id="path602"
   d="M151,240v90h210v-90H151z M331,300H181v-30h150V300z" />
	</g>
</g>
<g
   id="g608">
</g>
<g
   id="g610">
</g>
<g
   id="g612">
</g>
<g
   id="g614">
</g>
<g
   id="g616">
</g>
<g
   id="g618">
</g>
<g
   id="g620">
</g>
<g
   id="g622">
</g>
<g
   id="g624">
</g>
<g
   id="g626">
</g>
<g
   id="g628">
</g>
<g
   id="g630">
</g>
<g
   id="g632">
</g>
<g
   id="g634">
</g>
<g
   id="g636">
</g>
</svg>
