<?xml version="1.0" ?><!DOCTYPE svg  PUBLIC '-//W3C//DTD SVG 1.1//EN'  'http://www.w3.org/Graphics/SVG/1.1/DTD/svg11.dtd'><svg enable-background="new 0 0 128 128" id="Слой_1" version="1.1" viewBox="0 0 128 128" xml:space="preserve" xmlns="http://www.w3.org/2000/svg" xmlns:xlink="http://www.w3.org/1999/xlink"><g><g opacity="0.3"><path d="M42,126H3v-16h39V126z M7,122h31v-8H7V122z" fill="#3EBBC4"/></g><g opacity="0.3"><path d="M83,126H44v-16h39V126z M48,122h31v-8H48V122z" fill="#3EBBC4"/></g><g opacity="0.3"><path d="M124,126H85v-16h39V126z M89,122h31v-8H89V122z" fill="#3EBBC4"/></g><g opacity="0.3"><polygon fill="#3EBBC4" points="124,108 105,108 105,92 124,92 124,96 109,96 109,104 124,104   "/></g><g opacity="0.3"><polygon fill="#3EBBC4" points="21,108 3,108 3,104 17,104 17,96 3,96 3,92 21,92   "/></g><g opacity="0.3"><path d="M21,90H3V74h18V90z M7,86h10v-8H7V86z" fill="#3EBBC4"/></g><g opacity="0.3"><path d="M124,90h-19V74h19V90z M109,86h11v-8h-11V86z" fill="#3EBBC4"/></g><g opacity="0.3"><polygon fill="#3EBBC4" points="124,72 105,72 105,56 124,56 124,60 109,60 109,68 124,68   "/></g><g opacity="0.3"><polygon fill="#3EBBC4" points="21,72 3,72 3,68 17,68 17,60 3,60 3,56 21,56   "/></g><g opacity="0.3"><path d="M21,54H3V38h18V54z M7,50h10v-8H7V50z" fill="#3EBBC4"/></g><g opacity="0.3"><path d="M124,54h-19V38h19V54z M109,50h11v-8h-11V50z" fill="#3EBBC4"/></g><g opacity="0.3"><polygon fill="#3EBBC4" points="124,36 105,36 105,20 124,20 124,24 109,24 109,32 124,32   "/></g><g opacity="0.3"><polygon fill="#3EBBC4" points="21,36 3,36 3,32 17,32 17,24 3,24 3,20 21,20   "/></g><g opacity="0.3"><path d="M42,18H3V2h39V18z M7,14h31V6H7V14z" fill="#3EBBC4"/></g><g opacity="0.3"><path d="M83,18H44V2h39V18z M48,14h31V6H48V14z" fill="#3EBBC4"/></g><g opacity="0.3"><path d="M124,18H85V2h39V18z M89,14h31V6H89V14z" fill="#3EBBC4"/></g><path d="M103,20H23v81h0v7h80v-7h0V20z M99,104H27v-3h72V104z M99,97H65V24h34V97z M27,24h34v73H27V24z" fill="#3EBBC4"/><g opacity="0.3"><rect fill="#3EBBC4" height="37" transform="matrix(0.946 0.3242 -0.3242 0.946 19.5019 -26.0748)" width="4" x="86" y="27"/></g><g opacity="0.3"><rect fill="#3EBBC4" height="14.9" transform="matrix(0.9417 0.3364 -0.3364 0.9417 16.5242 -25.3826)" width="4" x="79.5" y="27.6"/></g></g></svg>