<?xml version="1.0" ?><!DOCTYPE svg  PUBLIC '-//W3C//DTD SVG 1.1//EN'  'http://www.w3.org/Graphics/SVG/1.1/DTD/svg11.dtd'><svg enable-background="new 0 0 128 128" id="Слой_1" version="1.1" viewBox="0 0 128 128" xml:space="preserve" xmlns="http://www.w3.org/2000/svg" xmlns:xlink="http://www.w3.org/1999/xlink"><g><g opacity="0.3"><path d="M31.3,126c-2.2,0-4.2-0.5-6.2-1.4l1.7-3.6c1.4,0.7,2.9,1,4.5,1c5.9,0,10.7-4.8,10.7-10.7    c0-5.9-4.8-10.7-10.7-10.7c-1.4,0-2.8,0.3-4.2,0.8l-1.6-3.7c1.8-0.8,3.7-1.2,5.7-1.2c8.1,0,14.7,6.6,14.7,14.7S39.4,126,31.3,126z    " fill="#3EBBC4"/></g><g opacity="0.3"><rect fill="#3EBBC4" height="4" width="10" x="103.3" y="80.5"/></g><g opacity="0.3"><rect fill="#3EBBC4" height="4" width="20" x="98.3" y="96.5"/></g><g opacity="0.3"><rect fill="#3EBBC4" height="4" width="30" x="93.3" y="112.5"/></g><g><path d="M44.4,102.5c1.1,0,2.2-0.1,3.2-0.3l27.9-4.8c4-0.7,7.3-3.7,8.3-7.7l7.2-27.3v-3.1H76.5    C69.6,49.7,58.5,44,46.7,44c-11.8,0-22.9,5.7-29.8,15.3H4v3.5l25.5,32.4C33.2,99.9,38.6,102.5,44.4,102.5z M46.7,48    c9.7,0,18.5,4.1,24.8,11.3H21.9C28.1,52.1,37,48,46.7,48z M86.7,63.3L80,88.7c-0.6,2.4-2.7,4.3-5.2,4.7L47,98.3    c-0.8,0.1-1.7,0.2-2.6,0.2c-4.6,0-8.9-2.1-11.7-5.7L9.5,63.3H86.7z" fill="#3EBBC4"/><path d="M91.7,66.5l-8.1,31.3l-48.5,8.8c-2-5.8-7.5-9.9-13.9-9.9c-8.1,0-14.7,6.6-14.7,14.7S13.1,126,21.3,126    S36,119.4,36,111.3c0-0.3,0-0.6,0-0.9l25.2-4.6l7.4,15.9c1.2,2.5,3.6,4.1,6.4,4.1c0.2,0,0.4,0,0.7,0c3-0.3,5.5-2.3,6.2-5.3    l13-50.1H106v-4H91.7z M32,111.3c0,5.9-4.8,10.7-10.7,10.7s-10.7-4.8-10.7-10.7c0-5.9,4.8-10.7,10.7-10.7c4.5,0,8.3,2.8,9.9,6.7    l-11.6,2.1l0.7,3.9l11.7-2.1C32,111.2,32,111.2,32,111.3z M78,119.6c-0.4,1.5-1.7,2.2-2.7,2.3c-1,0.1-2.4-0.3-3.1-1.8l-7-15    l17.3-3.1L78,119.6z" fill="#3EBBC4"/></g><g opacity="0.3"><path d="M83.8,62.4c-6.9-10.2-18.8-15.6-31-14.2l-0.5-4c13.7-1.6,27,4.5,34.8,15.9L83.8,62.4z" fill="#3EBBC4"/></g></g></svg>