<?xml version="1.0" ?><!DOCTYPE svg  PUBLIC '-//W3C//DTD SVG 1.1//EN'  'http://www.w3.org/Graphics/SVG/1.1/DTD/svg11.dtd'><svg enable-background="new 0 0 128 128" id="Слой_1" version="1.1" viewBox="0 0 128 128" xml:space="preserve" xmlns="http://www.w3.org/2000/svg" xmlns:xlink="http://www.w3.org/1999/xlink"><g><path d="M21,126H2V2h19V126z M6,122h11V6H6V122z" fill="#3EBBC4"/></g><g><path d="M42,126H23V75h19V126z M27,122h11V79H27V122z" fill="#3EBBC4"/></g><g><path d="M42,73H23V2h19V73z M27,69h11V6H27V69z" fill="#3EBBC4"/></g><g><path d="M21,126H2V2h19V126z M6,122h11V6H6V122z" fill="#3EBBC4"/></g><g><path d="M42,126H23V75h19V126z M27,122h11V79H27V122z" fill="#3EBBC4"/></g><g><path d="M42,73H23V2h19V73z M27,69h11V6H27V69z" fill="#3EBBC4"/></g><g opacity="0.3"><circle cx="30" cy="66" fill="#3EBBC4" r="1.5"/></g><g opacity="0.3"><circle cx="35" cy="66" fill="#3EBBC4" r="1.5"/></g><g opacity="0.3"><circle cx="9" cy="119" fill="#3EBBC4" r="1.5"/></g><g opacity="0.3"><circle cx="14" cy="119" fill="#3EBBC4" r="1.5"/></g><g opacity="0.3"><circle cx="9" cy="9" fill="#3EBBC4" r="1.5"/></g><g opacity="0.3"><circle cx="14" cy="9" fill="#3EBBC4" r="1.5"/></g><g opacity="0.3"><circle cx="30" cy="82" fill="#3EBBC4" r="1.5"/></g><g opacity="0.3"><circle cx="35" cy="82" fill="#3EBBC4" r="1.5"/></g><g><path d="M63,126H44V2h19V126z M48,122h11V6H48V122z" fill="#3EBBC4"/></g><g><path d="M84,126H65V55h19V126z M69,122h11V59H69V122z" fill="#3EBBC4"/></g><g><path d="M84,53H65V2h19V53z M69,49h11V6H69V49z" fill="#3EBBC4"/></g><g><path d="M63,126H44V2h19V126z M48,122h11V6H48V122z" fill="#3EBBC4"/></g><g><path d="M84,126H65V55h19V126z M69,122h11V59H69V122z" fill="#3EBBC4"/></g><g><path d="M84,53H65V2h19V53z M69,49h11V6H69V49z" fill="#3EBBC4"/></g><g opacity="0.3"><circle cx="72" cy="46" fill="#3EBBC4" r="1.5"/></g><g opacity="0.3"><circle cx="77" cy="46" fill="#3EBBC4" r="1.5"/></g><g opacity="0.3"><circle cx="51" cy="119" fill="#3EBBC4" r="1.5"/></g><g opacity="0.3"><circle cx="56" cy="119" fill="#3EBBC4" r="1.5"/></g><g opacity="0.3"><circle cx="51" cy="9" fill="#3EBBC4" r="1.5"/></g><g opacity="0.3"><circle cx="56" cy="9" fill="#3EBBC4" r="1.5"/></g><g opacity="0.3"><circle cx="72" cy="62" fill="#3EBBC4" r="1.5"/></g><g opacity="0.3"><circle cx="77" cy="62" fill="#3EBBC4" r="1.5"/></g><g><path d="M105,126H86V2h19V126z M90,122h11V6H90V122z" fill="#3EBBC4"/></g><g><path d="M126,126h-19V95h19V126z M111,122h11V99h-11V122z" fill="#3EBBC4"/></g><g><path d="M126,93h-19V2h19V93z M111,89h11V6h-11V89z" fill="#3EBBC4"/></g><g><path d="M105,126H86V2h19V126z M90,122h11V6H90V122z" fill="#3EBBC4"/></g><g><path d="M126,126h-19V95h19V126z M111,122h11V99h-11V122z" fill="#3EBBC4"/></g><g><path d="M126,93h-19V2h19V93z M111,89h11V6h-11V89z" fill="#3EBBC4"/></g><g opacity="0.3"><circle cx="114" cy="86" fill="#3EBBC4" r="1.5"/></g><g opacity="0.3"><circle cx="119" cy="86" fill="#3EBBC4" r="1.5"/></g><g opacity="0.3"><circle cx="93" cy="119" fill="#3EBBC4" r="1.5"/></g><g opacity="0.3"><circle cx="98" cy="119" fill="#3EBBC4" r="1.5"/></g><g opacity="0.3"><circle cx="93" cy="9" fill="#3EBBC4" r="1.5"/></g><g opacity="0.3"><circle cx="98" cy="9" fill="#3EBBC4" r="1.5"/></g><g opacity="0.3"><circle cx="114" cy="102" fill="#3EBBC4" r="1.5"/></g><g opacity="0.3"><circle cx="119" cy="102" fill="#3EBBC4" r="1.5"/></g></svg>