<?xml version="1.0" ?><!DOCTYPE svg  PUBLIC '-//W3C//DTD SVG 1.1//EN'  'http://www.w3.org/Graphics/SVG/1.1/DTD/svg11.dtd'><svg enable-background="new 0 0 128 128" id="Слой_1" version="1.1" viewBox="0 0 128 128" xml:space="preserve" xmlns="http://www.w3.org/2000/svg" xmlns:xlink="http://www.w3.org/1999/xlink"><g><g><path d="M42,126H3v-16h39V126z M7,122h31v-8H7V122z" fill="#3EBBC4"/></g><g><path d="M83,126H44v-16h39V126z M48,122h31v-8H48V122z" fill="#3EBBC4"/></g><g><path d="M124,126H85v-16h39V126z M89,122h31v-8H89V122z" fill="#3EBBC4"/></g><g><path d="M62,108H23V92h39V108z M27,104h31v-8H27V104z" fill="#3EBBC4"/></g><g><path d="M103,108H64V92h39V108z M68,104h31v-8H68V104z" fill="#3EBBC4"/></g><g><polygon fill="#3EBBC4" points="124,108 105,108 105,92 124,92 124,96 109,96 109,104 124,104   "/></g><g><polygon fill="#3EBBC4" points="21,108 3,108 3,104 17,104 17,96 3,96 3,92 21,92   "/></g><g><path d="M42,90H3V74h39V90z M7,86h31v-8H7V86z" fill="#3EBBC4"/></g><g><path d="M83,90H44V74h39V90z M48,86h31v-8H48V86z" fill="#3EBBC4"/></g><g><path d="M124,90H85V74h39V90z M89,86h31v-8H89V86z" fill="#3EBBC4"/></g><g><path d="M62,72H23V56h39V72z M27,68h31v-8H27V68z" fill="#3EBBC4"/></g><g><path d="M103,72H64V56h39V72z M68,68h31v-8H68V68z" fill="#3EBBC4"/></g><g><polygon fill="#3EBBC4" points="124,72 105,72 105,56 124,56 124,60 109,60 109,68 124,68   "/></g><g><polygon fill="#3EBBC4" points="21,72 3,72 3,68 17,68 17,60 3,60 3,56 21,56   "/></g><g><path d="M42,54H3V38h39V54z M7,50h31v-8H7V50z" fill="#3EBBC4"/></g><g><path d="M83,54H44V38h39V54z M48,50h31v-8H48V50z" fill="#3EBBC4"/></g><g opacity="0.3"><rect fill="#3EBBC4" height="4" width="37" x="87" y="50"/></g><g><polygon fill="#3EBBC4" points="21,36 3,36 3,32 17,32 17,24 3,24 3,20 21,20   "/></g><g><path d="M89.9,30.6l-5.5-15l36.6-13.3l5.5,15L89.9,30.6z M89.6,17.9l2.7,7.5l29.1-10.6l-2.7-7.5L89.6,17.9z" fill="#3EBBC4"/></g></g></svg>