<?xml version="1.0" ?><!DOCTYPE svg  PUBLIC '-//W3C//DTD SVG 1.1//EN'  'http://www.w3.org/Graphics/SVG/1.1/DTD/svg11.dtd'><svg enable-background="new 0 0 128 128" id="Слой_1" version="1.1" viewBox="0 0 128 128" xml:space="preserve" xmlns="http://www.w3.org/2000/svg" xmlns:xlink="http://www.w3.org/1999/xlink"><g><path d="M66,2h-2H2v124h64V86h52.9c0,0,0,0,0.1,0c4,0,7-5.2,7-12l0-72H66z M122,6l0,57.1c-0.9-0.7-1.9-1.1-3-1.1   l-53,0V6H122z M64,84L64,84l0-2c-1.1,0-3-3-3-8s1.9-8,3-8v-2h0v2l49.7,0c-1.1,2.1-1.7,4.9-1.7,8c0,3.1,0.6,5.9,1.7,8H64V84z M6,122   V6h56v56.5c-3,1.4-5,5.9-5,11.5s2,10.1,5,11.5V122H6z M119,82L119,82L119,82c-1.1-0.1-3-3.1-3-8c0-5,1.9-8,3-8s3,3,3,8   S120.1,82,119,82z" fill="#3EBBC4"/><ellipse cx="119" cy="74" fill="#3EBBC4" rx="1.5" ry="3"/></g></svg>