<?xml version="1.0" ?><!DOCTYPE svg  PUBLIC '-//W3C//DTD SVG 1.1//EN'  'http://www.w3.org/Graphics/SVG/1.1/DTD/svg11.dtd'><svg enable-background="new 0 0 128 128" id="Слой_1" version="1.1" viewBox="0 0 128 128" xml:space="preserve" xmlns="http://www.w3.org/2000/svg" xmlns:xlink="http://www.w3.org/1999/xlink"><g><path d="M72.9,41.8l1.1-0.6V12c0-5.5-4.5-10-10-10S54,6.5,54,12v29.2l1.1,0.6c0.9,0.4,1.4,1.3,1.4,2.2   c0,1-0.5,1.8-1.4,2.2L54,46.8V54h8v26.3c-3.4,0.9-5.9,4-5.9,7.7v2h16v-2c0-3.8-2.6-6.9-6.1-7.8V54h8v-7.2l-1.1-0.6   C72,45.8,71.5,45,71.5,44C71.5,43,72,42.2,72.9,41.8z M67.6,86h-6.9c0.7-1.2,2-2,3.5-2S66.9,84.8,67.6,86z M64,6   c2.6,0,4.8,1.7,5.6,4H58.4C59.2,7.7,61.4,6,64,6z M70,49.1V50H58v-0.9c1.5-1.2,2.5-3.1,2.5-5.1c0-2-0.9-3.9-2.5-5.1V14h12v24.9   c-1.5,1.2-2.5,3.1-2.5,5.1C67.5,46,68.5,47.9,70,49.1z" fill="#3EBBC4"/><g><rect fill="#3EBBC4" height="4" width="6" x="61.1" y="92"/></g><g><rect fill="#3EBBC4" height="4" width="6" x="61.1" y="98"/></g><g><rect fill="#3EBBC4" height="4" width="6" x="61.1" y="104"/></g><g><rect fill="#3EBBC4" height="4" width="6" x="61.1" y="110"/></g><g><rect fill="#3EBBC4" height="4" width="4" x="62.1" y="116"/></g><g><path d="M14.5,118.7l-2-0.4c-4.3-0.9-7.1-5.2-6.2-9.5c0.8-3.7,4.1-6.3,7.8-6.3c0.6,0,1.1,0.1,1.7,0.2l2,0.4    L14.5,118.7z M13,106.7c-1.3,0.4-2.4,1.6-2.7,3c-0.3,1.4,0.2,2.9,1.2,3.8L13,106.7z" fill="#3EBBC4"/></g><g><rect fill="#3EBBC4" height="6" transform="matrix(0.9781 0.208 -0.208 0.9781 23.6869 -1.7316)" width="4" x="18.1" y="108.8"/></g><g><rect fill="#3EBBC4" height="6" transform="matrix(0.9781 0.208 -0.208 0.9781 24.0749 -2.9254)" width="4" x="23.9" y="110"/></g><g><rect fill="#3EBBC4" height="6" transform="matrix(0.9781 0.208 -0.208 0.9781 24.4567 -4.1187)" width="4" x="29.8" y="111.2"/></g><g><rect fill="#3EBBC4" height="6" transform="matrix(0.9781 0.208 -0.208 0.9781 24.8508 -5.3128)" width="4" x="35.7" y="112.5"/></g><g><rect fill="#3EBBC4" height="4" transform="matrix(0.9781 0.208 -0.208 0.9781 25.2387 -6.5065)" width="4" x="41.6" y="114.7"/></g><g opacity="0.3"><path d="M34.3,77.4C23.2,74.2,17,69.5,17,64c0-7,10.2-12.8,27.2-15.5l0.6,3.9C28.5,55.1,21,60.3,21,64    c0,3.3,5.5,7,14.4,9.5L34.3,77.4z" fill="#3EBBC4"/></g><g opacity="0.3"><path d="M83.3,79.6l-0.6-4C99.4,73,107,67.8,107,64c0-3.4-5.6-7-14.5-9.5l1.1-3.9C104.8,53.8,111,58.5,111,64    C111,71.1,100.7,76.9,83.3,79.6z" fill="#3EBBC4"/></g><g><rect fill="#3EBBC4" height="4" width="120" x="4" y="122"/></g></g></svg>