<?xml version="1.0" ?><!DOCTYPE svg  PUBLIC '-//W3C//DTD SVG 1.1//EN'  'http://www.w3.org/Graphics/SVG/1.1/DTD/svg11.dtd'><svg enable-background="new 0 0 128 128" id="Слой_1" version="1.1" viewBox="0 0 128 128" xml:space="preserve" xmlns="http://www.w3.org/2000/svg" xmlns:xlink="http://www.w3.org/1999/xlink"><g><path d="M41.3,41.3H2V2h39.3V41.3z M6,37.3h31.3V6H6V37.3z" fill="#3EBBC4"/></g><g opacity="0.3"><rect fill="#3EBBC4" height="10.3" width="4" x="30.3" y="9"/></g><g opacity="0.3"><rect fill="#3EBBC4" height="5.3" width="4" x="24.3" y="9"/></g><g opacity="0.3"><rect fill="#3EBBC4" height="10.3" width="4" x="31.3" y="51"/></g><g opacity="0.3"><rect fill="#3EBBC4" height="5.3" width="4" x="25.3" y="51"/></g><g opacity="0.3"><rect fill="#3EBBC4" height="10.3" width="4" x="31.3" y="51"/></g><g opacity="0.3"><rect fill="#3EBBC4" height="5.3" width="4" x="25.3" y="51"/></g><g opacity="0.3"><rect fill="#3EBBC4" height="10.3" width="4" x="31.3" y="93"/></g><g opacity="0.3"><rect fill="#3EBBC4" height="5.3" width="4" x="25.3" y="93"/></g><g opacity="0.3"><rect fill="#3EBBC4" height="10.3" width="4" x="31.3" y="93"/></g><g opacity="0.3"><rect fill="#3EBBC4" height="5.3" width="4" x="25.3" y="93"/></g><g opacity="0.3"><rect fill="#3EBBC4" height="10.3" width="4" x="73.3" y="93"/></g><g opacity="0.3"><rect fill="#3EBBC4" height="5.3" width="4" x="67.3" y="93"/></g><g opacity="0.3"><rect fill="#3EBBC4" height="10.3" width="4" x="73.3" y="93"/></g><g opacity="0.3"><rect fill="#3EBBC4" height="5.3" width="4" x="67.3" y="93"/></g><g opacity="0.3"><rect fill="#3EBBC4" height="10.3" width="4" x="115.3" y="93"/></g><g opacity="0.3"><rect fill="#3EBBC4" height="5.3" width="4" x="109.3" y="93"/></g><g opacity="0.3"><rect fill="#3EBBC4" height="10.3" width="4" x="115.3" y="93"/></g><g opacity="0.3"><rect fill="#3EBBC4" height="5.3" width="4" x="109.3" y="93"/></g><g><path d="M41.3,83.6H2V44.4h39.3V83.6z M6,79.6h31.3V48.4H6V79.6z" fill="#3EBBC4"/></g><g opacity="0.3"><rect fill="#3EBBC4" height="10.3" width="4" x="73.6" y="51"/></g><g opacity="0.3"><rect fill="#3EBBC4" height="5.3" width="4" x="67.6" y="51"/></g><g opacity="0.3"><rect fill="#3EBBC4" height="10.3" width="4" x="73.6" y="51"/></g><g opacity="0.3"><rect fill="#3EBBC4" height="5.3" width="4" x="67.6" y="51"/></g><g><path d="M83.6,83.6H44.4V44.4h39.3V83.6z M48.4,79.6h31.3V48.4H48.4V79.6z" fill="#3EBBC4"/></g><g><path d="M41.3,126H2V86.7h39.3V126z M6,122h31.3V90.7H6V122z" fill="#3EBBC4"/></g><g><path d="M83.6,126H44.4V86.7h39.3V126z M48.4,122h31.3V90.7H48.4V122z" fill="#3EBBC4"/></g><g opacity="0.3"><rect fill="#3EBBC4" height="39" width="4" x="44.4" y="2"/></g><g opacity="0.3"><rect fill="#3EBBC4" height="39" width="4" x="51.4" y="2"/></g><g opacity="0.3"><rect fill="#3EBBC4" height="39" width="4" x="58.4" y="2"/></g><g opacity="0.3"><rect fill="#3EBBC4" height="39" width="4" x="65.4" y="2"/></g><g opacity="0.3"><rect fill="#3EBBC4" height="39" width="4" x="72.4" y="2"/></g><g opacity="0.3"><rect fill="#3EBBC4" height="39" width="4" x="79.4" y="2"/></g><g opacity="0.3"><rect fill="#3EBBC4" height="82" width="4" x="86.4" y="2"/></g><g opacity="0.3"><rect fill="#3EBBC4" height="82" width="4" x="93.4" y="2"/></g><g opacity="0.3"><rect fill="#3EBBC4" height="82" width="4" x="100.4" y="2"/></g><g opacity="0.3"><rect fill="#3EBBC4" height="82" width="4" x="107.4" y="2"/></g><g opacity="0.3"><rect fill="#3EBBC4" height="82" width="4" x="114.4" y="2"/></g><g opacity="0.3"><rect fill="#3EBBC4" height="82" width="4" x="121.4" y="2"/></g><g><path d="M126,126H86.7V86.7H126V126z M90.7,122H122V90.7H90.7V122z" fill="#3EBBC4"/></g></svg>