<?xml version="1.0" ?><!DOCTYPE svg  PUBLIC '-//W3C//DTD SVG 1.1//EN'  'http://www.w3.org/Graphics/SVG/1.1/DTD/svg11.dtd'><svg enable-background="new 0 0 128 128" id="Слой_1" version="1.1" viewBox="0 0 128 128" xml:space="preserve" xmlns="http://www.w3.org/2000/svg" xmlns:xlink="http://www.w3.org/1999/xlink"><g><path d="M72.5,5.5C70.2,3.3,67.2,2,64,2c-3.2,0-6.2,1.2-8.5,3.5l-50,50C3.3,57.8,2,60.8,2,64s1.2,6.2,3.5,8.5l50,50   c2.3,2.3,5.3,3.5,8.5,3.5c3.2,0,6.2-1.2,8.5-3.5l50-50c2.3-2.3,3.5-5.3,3.5-8.5s-1.2-6.2-3.5-8.5L72.5,5.5z M119.7,69.7l-50,50   c-1.5,1.5-3.5,2.3-5.7,2.3c-2.1,0-4.1-0.8-5.7-2.3l-50-50C6.8,68.1,6,66.1,6,64s0.8-4.1,2.3-5.7l50-50C59.9,6.8,61.9,6,64,6   c2.1,0,4.1,0.8,5.7,2.3l50,50c1.5,1.5,2.3,3.5,2.3,5.7S121.2,68.1,119.7,69.7z" fill="#3EBBC4"/><path d="M37.1,61.4c0,2.7-1.9,4-3.7,4c-1.9,0-3.7-1.2-3.7-4V50.9h-3.2v10.6c0,4.6,3.5,7,6.9,7c3.4,0,6.9-2.4,6.9-7   V50.9h-3.2V61.4z" fill="#3EBBC4"/><polygon fill="#3EBBC4" points="44.7,57.3 53.6,68.3 55.5,68.3 55.5,50.9 52.4,50.9 52.4,61.8 43.5,50.9 41.5,50.9 41.5,68.3    44.7,68.3  "/><path d="M63.1,50.9h-6.2v17.4h6.2c2.6,0,4.8-0.9,6.4-2.5c1.6-1.6,2.5-4,2.4-6.4C71.8,55.3,69,50.9,63.1,50.9z    M63.1,65.1h-3V54h3c4.1,0,5.6,2.9,5.6,5.4c0,1.6-0.5,3.1-1.5,4.2C66.1,64.6,64.8,65.1,63.1,65.1z" fill="#3EBBC4"/><polygon fill="#3EBBC4" points="75.7,61 84.7,61 84.7,58 75.7,58 75.7,54 85.2,54 85.2,50.9 72.5,50.9 72.5,68.3 85.4,68.3    85.4,65.1 75.7,65.1  "/><path d="M89.3,62.4H92l5.3,5.8h4.3L96,62.1c0.9-0.3,1.8-0.7,2.4-1.4c1-1,1.6-2.5,1.6-4.1c0-2.9-2.1-5.8-6.1-5.8   h-7.8v17.4h3.2V62.4z M93.7,59.3h-4.5V54h4.6c0.9,0,1.5,0.3,2,0.8c0.5,0.5,0.7,1.2,0.7,1.9C96.6,58.4,95.7,59.3,93.7,59.3z" fill="#3EBBC4"/><path d="M29.1,74.5c0.5,0,1,0.2,1.4,0.6l0.3,0.3l1.1-0.9l-0.4-0.4c-0.6-0.6-1.5-1-2.4-1c-1,0-1.8,0.3-2.4,0.9   c-0.6,0.6-1,1.5-0.9,2.5c0,2,1.4,3.3,3.4,3.3c0.9,0,1.8-0.4,2.4-1l0.4-0.4l-1-1l-0.3,0.3c-0.4,0.4-0.9,0.6-1.4,0.6   c-1.4,0-2-1-2-1.9c0-0.6,0.2-1.1,0.5-1.5C28,74.7,28.5,74.5,29.1,74.5z" fill="#3EBBC4"/><path d="M36,73.1c-2.3,0-3.3,1.8-3.3,3.4c0,1.6,1,3.4,3.3,3.4c2.3,0,3.3-1.8,3.3-3.4c0-1-0.3-1.9-1-2.5   C37.7,73.4,36.9,73.1,36,73.1z M36,78.5c-1.3,0-1.9-1-1.9-2c0-0.6,0.2-1.1,0.5-1.5c0.3-0.3,0.8-0.5,1.4-0.5c1.4,0,1.9,1.1,1.9,2   C37.9,77.5,37.3,78.5,36,78.5z" fill="#3EBBC4"/><polygon fill="#3EBBC4" points="44.5,76.9 41.4,73.2 40.5,73.2 40.5,79.8 41.9,79.8 41.9,76 45,79.8 45.9,79.8 45.9,73.2    44.5,73.2  "/><path d="M49.9,74.5c0.6,0,1,0.1,1.3,0.5l0.3,0.4l1.2-0.7l-0.3-0.4c-0.7-1-1.6-1.2-2.5-1.2c-0.4,0-1.5,0.1-2.1,0.7   c-0.3,0.3-0.5,0.8-0.5,1.3c0,1.4,1.4,1.7,2.5,1.9c1,0.2,1.4,0.3,1.4,0.7c0,0.6-0.9,0.7-1.3,0.7c-0.5,0-1.2-0.3-1.5-0.7l-0.2-0.4   l-1.3,0.6l0.2,0.4c0.6,1.1,1.8,1.5,2.7,1.5c1.7,0,2.7-0.8,2.7-2.1c0-1.6-1.5-1.9-2.6-2.1c-1-0.2-1.3-0.3-1.3-0.6   C48.7,74.5,49.8,74.5,49.9,74.5z" fill="#3EBBC4"/><polygon fill="#3EBBC4" points="53.3,74.6 55.3,74.6 55.3,79.8 56.7,79.8 56.7,74.6 58.7,74.6 58.7,73.2 53.3,73.2  "/><path d="M64.5,77c0.4-0.4,0.6-1,0.6-1.6c0-1.1-0.8-2.2-2.3-2.2h-3v6.6h1.4v-2.1H62l1.9,2.1h1.9l-2.1-2.3   C64,77.3,64.2,77.2,64.5,77z M61.2,74.6h1.5c0.3,0,0.5,0.1,0.6,0.2c0.1,0.1,0.2,0.4,0.2,0.6c0,0.6-0.3,0.8-0.9,0.8h-1.5V74.6z" fill="#3EBBC4"/><path d="M70.2,77.1c0,1.8-2.4,1.8-2.4,0v-4h-1.4v4c0,1.8,1.3,2.7,2.6,2.7c1.3,0,2.6-0.9,2.6-2.7v-4h-1.4V77.1z" fill="#3EBBC4"/><path d="M76.1,74.5c0.5,0,1,0.2,1.4,0.6l0.3,0.3l1.1-0.9l-0.4-0.4c-0.6-0.6-1.5-1-2.4-1c-1,0-1.8,0.3-2.4,0.9   c-0.6,0.6-1,1.5-0.9,2.5c0,2,1.4,3.3,3.4,3.3c0.9,0,1.8-0.4,2.4-1l0.4-0.4l-1-1l-0.3,0.3c-0.4,0.4-0.9,0.6-1.4,0.6   c-1.4,0-2-1-2-1.9c0-0.6,0.2-1.1,0.5-1.5C75,74.7,75.5,74.5,76.1,74.5z" fill="#3EBBC4"/><polygon fill="#3EBBC4" points="79.3,74.6 81.3,74.6 81.3,79.8 82.7,79.8 82.7,74.6 84.8,74.6 84.8,73.2 79.3,73.2  "/><rect fill="#3EBBC4" height="6.6" width="1.4" x="85.8" y="73.2"/><path d="M91.9,73.1c-2.3,0-3.3,1.8-3.3,3.4c0,1.6,1,3.4,3.3,3.4c2.3,0,3.3-1.8,3.3-3.4c0-1-0.3-1.9-1-2.5   C93.7,73.4,92.9,73.1,91.9,73.1z M91.9,78.5c-1.3,0-1.9-1-1.9-2c0-0.6,0.2-1.1,0.5-1.5c0.3-0.3,0.8-0.5,1.4-0.5   c1.4,0,1.9,1.1,1.9,2C93.8,77.5,93.2,78.5,91.9,78.5z" fill="#3EBBC4"/><polygon fill="#3EBBC4" points="100.4,76.9 97.4,73.2 96.5,73.2 96.5,79.8 97.9,79.8 97.9,76 100.9,79.8 101.8,79.8 101.8,73.2    100.4,73.2  "/></g></svg>