<svg height="512pt" viewBox="0 0 512 512" width="512pt" xmlns="http://www.w3.org/2000/svg"><path d="m186 354.445312h-82.871094c-56.859375 0-103.128906 46.125-103.128906 102.828126v9.765624c0 24.792969 20.210938 44.957032 45.058594 44.957032h44.839844v-45.246094c0-8.277344 6.710937-14.992188 15-14.992188 8.28125 0 15 6.714844 15 14.992188v45.246094h63.089843l18.632813-108.535156c-9.761719-11.894532-15.621094-27.101563-15.621094-43.636719zm0 0"/><path d="m408.871094 354.445312h-84.632813v5.378907c0 16.535156-5.859375 31.730469-15.617187 43.625l18.628906 108.546875h64.851562v-45.246094c0-8.277344 6.71875-14.992188 15-14.992188 8.289063 0 15 6.714844 15 14.992188v45.246094h44.839844c24.847656 0 45.058594-20.164063 45.058594-44.957032v-9.765624c0-56.703126-46.269531-102.828126-103.128906-102.828126zm0 0"/><path d="m294.238281 359.828125v-17.632813c43.710938-15.957031 75-57.851562 75-106.898437v-69.445313h-228.289062l.050781 69.445313c0 49.046875 31.28125 90.941406 75 106.898437v17.632813c0 13.746094 7.140625 25.832031 17.921875 32.769531l-20.492187 119.402344h83.378906l-20.488282-119.402344c10.78125-6.9375 17.917969-19.023437 17.917969-32.769531zm0 0"/><path d="m115.976562 136.636719h278.238282c8.28125 0 15-6.703125 15-14.96875 0-8.269531-6.71875-14.972657-15-14.972657h-30.015625c-.5-29.234374-12.617188-55.660156-31.941407-74.898437-10.492187-10.441406-23.121093-18.761719-37.160156-24.261719v46.089844c0 8.273438-6.71875 14.972656-15 14.972656-8.289062 0-15-6.699218-15-14.972656v-53.164062c-3.289062-.3125-6.628906-.460938-10-.460938s-6.710937.148438-10 .460938v53.164062c0 8.273438-6.71875 14.972656-15 14.972656-8.289062 0-15-6.699218-15-14.972656v-46.101562c-39.925781 15.652343-68.335937 54.0625-69.105468 99.171874h-30.015626c-8.285156 0-15 6.703126-15 14.972657s6.714844 14.96875 15 14.96875zm0 0"/></svg>