<?xml version="1.0" encoding="utf-8"?>
<!-- Generator: Adobe Illustrator 27.0.0, SVG Export Plug-In . SVG Version: 6.00 Build 0)  -->
<svg version="1.1" id="Layer_1" xmlns="http://www.w3.org/2000/svg" xmlns:xlink="http://www.w3.org/1999/xlink" x="0px" y="0px"
	 viewBox="0 0 512 512" style="enable-background:new 0 0 512 512;" xml:space="preserve">
<style type="text/css">
	.st0{fill:#FFFFFF;}
</style>
<g>
	<g>
		<path class="st0" d="M10.6,491.1h-0.1c-5.8,0-10.4,4.7-10.4,10.4S4.7,512,10.4,512h0.1c5.8,0,10.4-4.7,10.4-10.4
			S16.4,491.1,10.6,491.1z"/>
	</g>
</g>
<g>
	<g>
		<path class="st0" d="M501.5,491.1h-0.1c-5.8,0-10.4,4.7-10.4,10.4s4.7,10.4,10.4,10.4h0.1c5.8,0,10.4-4.7,10.4-10.4
			S507.3,491.1,501.5,491.1z"/>
	</g>
</g>
<g>
	<g>
		<path class="st0" d="M294.1,212.1c-6.4,0-11.7,5.2-11.7,11.7c0,6.4,5.2,11.7,11.7,11.7s11.7-5.2,11.7-11.7
			C305.8,217.4,300.5,212.1,294.1,212.1z"/>
	</g>
</g>
<g>
	<g>
		<path class="st0" d="M217.9,212.1c-6.4,0-11.7,5.2-11.7,11.7c0,6.4,5.2,11.7,11.7,11.7s11.7-5.2,11.7-11.7
			C229.5,217.4,224.3,212.1,217.9,212.1z"/>
	</g>
</g>
<g>
	<g>
		<path class="st0" d="M266.2,261.3h-20.4c-5.8,0-10.4,4.7-10.4,10.4c0,11.4,9.3,20.7,20.7,20.7s20.7-9.3,20.7-20.7
			C276.7,266,272,261.3,266.2,261.3z"/>
	</g>
</g>
<g>
	<g>
		<path class="st0" d="M89.4,45c-12.9,0-24.9,5.9-34,16.4C46.3,50.9,34.4,45,21.5,45C15.7,45,11,49.6,11,55.4s4.7,10.4,10.4,10.4
			c9.8,0,18.9,7.1,24.5,19c1.7,3.7,5.4,6,9.5,6s7.7-2.3,9.5-6c5.6-11.9,14.7-19,24.5-19c5.8,0,10.4-4.7,10.4-10.4S95.2,45,89.4,45z"
			/>
	</g>
</g>
<g>
	<g>
		<path class="st0" d="M122.3,244.8c-12.9,0-24.9,5.9-34,16.4c-9.1-10.5-21.1-16.4-34-16.4c-5.8,0-10.4,4.7-10.4,10.4
			s4.7,10.4,10.4,10.4c9.8,0,18.9,7.1,24.5,19c1.7,3.7,5.4,6,9.5,6s7.7-2.4,9.5-6c5.6-11.9,14.7-19,24.5-19
			c5.8,0,10.4-4.7,10.4-10.4S128.1,244.8,122.3,244.8z"/>
	</g>
</g>
<g>
	<g>
		<path class="st0" d="M501.6,0c-12.9,0-24.9,5.9-34,16.4C458.5,5.9,446.5,0,433.6,0c-5.8,0-10.4,4.7-10.4,10.4s4.7,10.4,10.4,10.4
			c9.8,0,18.9,7.1,24.5,19c1.7,3.7,5.4,6,9.5,6s7.7-2.3,9.5-6c5.6-11.9,14.7-19,24.5-19c5.8,0,10.4-4.7,10.4-10.4S507.3,0,501.6,0z"
			/>
	</g>
</g>
<g>
	<g>
		<path class="st0" d="M463.6,257c-5.8,0-10.4,4.7-10.4,10.4v22.8c0,5.8,4.7,10.4,10.4,10.4s10.4-4.7,10.4-10.4v-22.8
			C474,261.7,469.4,257,463.6,257z"/>
	</g>
</g>
<g>
	<g>
		<path class="st0" d="M488.8,245.6c-5.8,0-10.4,4.7-10.4,10.4v22.8c0,5.8,4.7,10.4,10.4,10.4s10.4-4.7,10.4-10.4v-22.8
			C499.3,250.3,494.6,245.6,488.8,245.6z"/>
	</g>
</g>
<g>
	<g>
		<path class="st0" d="M438.3,245.6c-5.8,0-10.4,4.7-10.4,10.4v22.8c0,5.8,4.7,10.4,10.4,10.4c5.8,0,10.4-4.7,10.4-10.4V256
			C448.8,250.2,444.1,245.6,438.3,245.6z"/>
	</g>
</g>
<g>
	<g>
		<path class="st0" d="M511.7,418.3c-0.5-4.9-4.5-8.9-9.4-9.4c-0.9-0.1-2.8-0.3-5.5-0.3c1.3-1,2.6-2.1,3.9-3.3
			c13.3-13.2,11.4-35.1,11-38.1c-0.5-4.9-4.5-8.9-9.4-9.3c-0.9-0.1-2.8-0.3-5.5-0.3c1.3-1,2.6-2.1,3.8-3.3
			c13.3-13.2,11.4-35.1,11-38.1c-0.5-4.9-4.5-8.8-9.4-9.3c-3.6-0.4-24.9-2.2-38,10.8c-0.2,0.2-0.4,0.5-0.7,0.7
			c-0.2-0.2-0.4-0.5-0.7-0.7c-13.1-13-34.5-11.2-38-10.8c-4.9,0.5-8.9,4.5-9.4,9.4c-0.3,3.1-2.2,24.9,11.1,38
			c1.2,1.2,2.5,2.3,3.8,3.3c-2.7,0-4.7,0.2-5.5,0.3c-4.9,0.5-8.9,4.5-9.4,9.4c-0.3,3.1-2.2,24.9,11.1,38c1.2,1.2,2.5,2.3,3.9,3.3
			c-2.7,0-4.7,0.2-5.5,0.3c-4.9,0.5-8.9,4.5-9.4,9.4c-0.3,3.1-2.2,24.9,11.1,38c7.8,7.8,18.4,10.3,26.6,10.9v23.8h-43.6v-70.6
			c0-20.4-12.3-39.7-29.9-47l-67.2-28c-2.4-1-3.9-3.3-3.9-5.9V325v-1.8l27.3-15.7c0.2-0.1,0.4-0.2,0.6-0.3c13.7-9,22.7-25.1,24-43
			c0-0.3,0-0.5,0-0.8v-8.7c13.6-4.4,23.4-17.2,23.4-32.2c0-6.7-2-12.9-5.3-18.2c11.8-2.7,22-5.9,30.2-9.4c17.9-7.6,27-17.1,27-28.2
			c0-16.4-19-28.6-57.9-37.5c-6.6-1.5-13.6-2.8-20.9-4.1V85.7c0-4.3-2.7-8.2-6.7-9.8c-2-0.8-48.8-18.4-94.2-18.4
			c-45.4,0-92.2,17.7-94.2,18.4c-4,1.5-6.7,5.4-6.7,9.8V125c-7.9,1.3-15.4,2.7-22.4,4.3c-39,8.8-57.9,21.1-57.9,37.5
			c0,16.8,20.9,25.4,27.8,28.3c8.4,3.5,18.9,6.6,30.8,9.4c-3.4,5.3-5.3,11.5-5.3,18.2c0,15,9.8,27.8,23.4,32.2v8.7
			c0,0.3,0,0.5,0,0.8c1.4,17.9,10.3,34,23.9,43c0.2,0.1,0.4,0.2,0.6,0.4l27.5,15.7v16.2c0,2.6-1.5,4.9-3.9,5.9l-67.2,28
			c-17.6,7.3-29.9,26.7-29.9,47v70.6H80.5v-73.3c17.9-9.2,30.2-27.8,30.2-49.3v-31.1c0-5.8-4.7-10.4-10.4-10.4s-10.4,4.7-10.4,10.4
			v31.1c0,14.9-9.6,27.7-22.9,32.4c-0.1,0-0.8,0.2-1.1,0.3v-64.9c0-5.8-4.7-10.4-10.4-10.4S45,330.7,45,336.4v64.9
			c-0.2-0.1-0.9-0.3-1-0.3c-13.4-4.7-23-17.5-23-32.5v-31.1c0-5.8-4.7-10.4-10.4-10.4s-10.4,4.7-10.4,10.4v31.1
			c0,21.5,12.3,40.1,30.3,49.3v83.7c0,5.8,4.7,10.4,10.4,10.4h426.8c5.8,0,10.4-4.7,10.4-10.4c0-3.3-1.5-6.2-3.9-8.2v-26.1
			c8.2-0.7,18.7-3.2,26.5-10.9c-1.8,1.8-2.8,2.8,0,0c8.3-8.2,3.1-3.1,0,0C513.9,443.1,512.1,421.4,511.7,418.3z M441.4,441.5
			c-2.8-2.8-4.2-7.4-4.8-11.6c4.2,0.6,8.8,1.9,11.7,4.7c2.8,2.8,4.2,7.4,4.8,11.6C448.8,445.6,444.2,444.3,441.4,441.5z
			 M441.4,390.5c-2.8-2.8-4.2-7.4-4.8-11.6c4.2,0.6,8.8,1.9,11.7,4.7c2.8,2.8,4.2,7.4,4.8,11.6C448.8,394.7,444.2,393.3,441.4,390.5
			z M441.4,339.6c-2.8-2.8-4.2-7.4-4.8-11.6c4.3,0.6,8.8,1.9,11.7,4.7c2.8,2.8,4.2,7.4,4.8,11.6
			C448.8,343.7,444.2,342.4,441.4,339.6z M51.3,491.1v-67.4c0,0,0,0,0,0c1.4,0.1,2.7,0.2,4.1,0.2c1.4,0,2.8-0.1,4.2-0.2c0,0,0,0,0,0
			v67.4L51.3,491.1L51.3,491.1z M176,93.1L176,93.1c14.1-4.7,48-14.7,80-14.7c31.9,0,65.9,10,80,14.7v29.2
			c-24.6-3-52.2-4.5-80.7-4.5c-28,0-55,1.5-79.3,4.4L176,93.1L176,93.1z M134.9,183.3c-25.6-6.2-37.1-13.2-39.1-16.6
			c1.7-2.9,12.8-11,46.1-18c30.8-6.5,71.1-10,113.4-10s82.6,3.6,113.4,10c33.5,7,44.4,15.2,46.1,18.1c-1.5,2.6-11,10.1-39,16.8
			c-2.1-15-23.8-21.7-40.2-25.4c-21.5-4.9-50-7.6-80.2-7.6s-58.7,2.7-80.2,7.6C158.7,161.9,137.3,168.5,134.9,183.3z M186.6,289.6
			c-8-5.4-13.3-15.3-14.2-26.6V246c0-5.8-4.7-10.4-10.4-10.4c-7.1,0-13-5.8-13-13s5.8-13,13-13c5.8,0,10.4-4.7,10.4-10.4v-18.7
			c3.7-1,8.1-2.1,13.4-3.1c19.3-3.7,43.9-5.8,69.5-5.8s50.2,2.1,69.5,5.8c5.9,1.1,10.8,2.3,14.8,3.5v18.3c0,5.8,4.7,10.4,10.4,10.4
			c7.1,0,13,5.8,13,13c0,7.1-5.8,13-13,13c-5.8,0-10.4,4.7-10.4,10.4V263c-0.9,11-6.4,21.2-14.4,26.6L269,321.8
			c-0.2,0.1-0.4,0.2-0.6,0.3c-7.8,5.2-17.2,5.2-25,0c-0.2-0.1-0.4-0.2-0.6-0.4L186.6,289.6z M287.6,335.2V377
			c0,17.4-14.2,31.5-31.6,31.5c-17.5,0-31.7-14.1-31.7-31.5v-37.5v-4.3l7.9,4.5c7.3,4.8,15.5,7.1,23.7,7.1c8.2,0,16.4-2.4,23.7-7.1
			L287.6,335.2z M148.4,491.1h-25.2v-70.6c0-11.8,7.3-23.7,17-27.8l4.9-2c2.2,4.6,3.3,9.7,3.3,14.9V491.1z M312.4,491.1H199.9v-24
			h112.6V491.1z M342.6,405.5v85.6h-9.3v-34.5c0-5.8-4.7-10.4-10.4-10.4H189.4c-5.8,0-10.4,4.7-10.4,10.4v34.5h-9.7v-85.6
			c0-8-1.7-15.7-4.9-22.9l39-16.2V377c0,28.9,23.6,52.4,52.6,52.4c29,0,52.5-23.5,52.5-52.4v-10.6l39,16.2
			C344.3,389.8,342.6,397.5,342.6,405.5z M388.7,491.1h-25.2v-85.6c0-5.2,1.1-10.2,3.3-14.9l4.9,2c9.7,4,17,16,17,27.8L388.7,491.1
			L388.7,491.1z M463.7,365.3c1.1,0.1,2.7,0.2,4.5,0.2c-1.3,1-2.6,2-3.8,3.3c-0.2,0.2-0.4,0.5-0.7,0.7c-0.2-0.2-0.4-0.5-0.7-0.7
			c-1.2-1.2-2.5-2.3-3.9-3.3C461,365.5,462.5,365.4,463.7,365.3z M464.3,419.7c-0.2,0.2-0.4,0.5-0.7,0.7c-0.2-0.2-0.4-0.5-0.7-0.7
			c-1.2-1.2-2.5-2.3-3.9-3.3c1.9,0,3.4-0.1,4.5-0.2c1.1,0.1,2.7,0.2,4.5,0.2C466.9,417.4,465.6,418.5,464.3,419.7z M479.1,332.6
			c2.8-2.8,7.4-4.1,11.7-4.7c-0.6,4.2-1.9,8.8-4.8,11.6c-2.8,2.8-7.4,4.1-11.7,4.7C474.9,340,476.2,335.5,479.1,332.6z M485.9,441.5
			c-2.8,2.8-7.4,4.1-11.7,4.7c0.6-4.2,1.9-8.8,4.8-11.6c2.8-2.8,7.4-4.1,11.7-4.7C490.1,434.1,488.8,438.7,485.9,441.5z
			 M485.9,390.5c-2.8,2.8-7.4,4.1-11.7,4.7c0.6-4.2,1.9-8.8,4.8-11.6c2.8-2.8,7.4-4.1,11.7-4.7C490.1,383.1,488.8,387.7,485.9,390.5
			z"/>
	</g>
</g>
</svg>
