<?xml version="1.0" encoding="UTF-8" standalone="no"?>
<svg
   xmlns:dc="http://purl.org/dc/elements/1.1/"
   xmlns:cc="http://creativecommons.org/ns#"
   xmlns:rdf="http://www.w3.org/1999/02/22-rdf-syntax-ns#"
   xmlns:svg="http://www.w3.org/2000/svg"
   xmlns="http://www.w3.org/2000/svg"
   xmlns:sodipodi="http://sodipodi.sourceforge.net/DTD/sodipodi-0.dtd"
   xmlns:inkscape="http://www.inkscape.org/namespaces/inkscape"
   inkscape:version="1.0 (1.0+r73+1)"
   sodipodi:docname="icon-profissao-engenheiro.svg"
   version="1.1"
   width="512"
   viewBox="0 0 512 512"
   height="512"
   enable-background="new 0 0 512 512"
   id="Capa_1">
  <metadata
     id="metadata606">
    <rdf:RDF>
      <cc:Work
         rdf:about="">
        <dc:format>image/svg+xml</dc:format>
        <dc:type
           rdf:resource="http://purl.org/dc/dcmitype/StillImage" />
        <dc:title></dc:title>
      </cc:Work>
    </rdf:RDF>
  </metadata>
  <defs
     id="defs604" />
  <sodipodi:namedview
     inkscape:current-layer="Capa_1"
     inkscape:window-maximized="1"
     inkscape:window-y="73"
     inkscape:window-x="0"
     inkscape:cy="297.97888"
     inkscape:cx="256"
     inkscape:zoom="0.90429688"
     showgrid="false"
     id="namedview602"
     inkscape:window-height="669"
     inkscape:window-width="1280"
     inkscape:pageshadow="2"
     inkscape:pageopacity="0"
     guidetolerance="10"
     gridtolerance="10"
     objecttolerance="10"
     borderopacity="1"
     bordercolor="#666666"
     pagecolor="#ffffff" />
  <path
     style="fill:#ffffff"
     id="path597"
     d="m392.073 221.45v-26.136c0-48.896-19.677-93.277-51.518-125.662 1.561-7.718-3.128-15.412-10.84-17.458-2.961-.785-5.95-.623-8.65.293-16.952-12.891-36.258-22.833-57.15-29.067l.683-6.957c.413-4.212-.973-8.404-3.816-11.54-2.844-3.134-6.879-4.923-11.112-4.923h-78.542c-4.233 0-8.269 1.789-11.112 4.924-2.844 3.136-4.229 7.328-3.816 11.54l.683 6.957c-20.893 6.233-40.198 16.176-57.15 29.067-2.701-.916-5.689-1.079-8.65-.294-7.712 2.047-12.401 9.74-10.839 17.458-31.841 32.385-51.517 76.766-51.517 125.662v26.49c-14.339 6.559-24.331 21.03-24.331 37.8 0 18.423 12.055 34.074 28.688 39.504v197.892c0 8.284 6.716 15 15 15h312.549c81.042 0 146.974-65.932 146.974-146.974-.002-70.252-49.55-129.139-115.534-143.576zm-204.401-191.45h45.454l-7.199 73.386h-31.056zm-21.33 89.851c.754 7.68 7.212 13.536 14.929 13.536h58.257c7.717 0 14.175-5.855 14.929-13.536l6.465-65.903c16.905 5.779 32.45 14.514 46.024 25.58l-10.218 38.511c-2.125 8.007 2.645 16.221 10.651 18.345 1.289.342 2.583.505 3.856.505 6.637 0 12.706-4.439 14.488-11.157l5.594-21.084c19.279 25.158 30.756 56.594 30.756 90.665v22.739h-303.347v-22.739c0-34.071 11.476-65.508 30.755-90.665l5.594 21.084c1.782 6.719 7.851 11.157 14.488 11.157 1.273 0 2.568-.164 3.856-.505 8.008-2.125 12.776-10.338 10.651-18.345l-10.218-38.511c13.574-11.066 29.118-19.801 46.023-25.58zm-131.947 139.753c0-6.37 5.183-11.552 11.552-11.552h225.809c-8.888 6.769-16.986 14.523-24.126 23.104h-201.684c-6.369 0-11.551-5.182-11.551-11.552zm193.882 41.552c-9.363 19.325-14.619 40.995-14.619 63.87 0 22.164 4.941 43.192 13.764 62.056-7.096 1.128-14.368 1.721-21.777 1.721-72.662 0-132.409-56.351-137.835-127.647zm-165.194 78.636c29.786 47.419 82.55 79.011 142.563 79.011 13.2 0 26.048-1.533 38.38-4.421 7.979 10.387 17.309 19.681 27.73 27.618h-208.673zm297.549 102.208c-64.499 0-116.974-52.474-116.974-116.974s52.475-116.974 116.974-116.974 116.974 52.474 116.974 116.974-52.475 116.974-116.974 116.974z" />
  <path
     style="fill:#ffffff"
     id="path599"
     d="m428.237 312.701h-135.212c-8.284 0-15 6.716-15 15v75.638c0 8.284 6.716 15 15 15h40.739c4.339 0 8.465-1.879 11.313-5.151 2.85-3.272 4.142-7.618 3.543-11.916-.082-.594-.124-1.169-.124-1.71 0-6.69 5.443-12.134 12.135-12.134 6.69 0 12.134 5.443 12.134 12.134 0 .541-.042 1.117-.124 1.71-.599 4.297.693 8.643 3.543 11.916 2.849 3.272 6.975 5.151 11.313 5.151h40.739c8.284 0 15-6.716 15-15v-75.638c.001-8.284-6.715-15-14.999-15zm-15 75.638h-11.989c-4.925-17.801-21.269-30.911-40.616-30.911s-35.692 13.11-40.617 30.911h-11.989v-45.638h105.212v45.638z" />
</svg>
