<?xml version="1.0" encoding="UTF-8" standalone="no"?>
<svg
   xmlns:dc="http://purl.org/dc/elements/1.1/"
   xmlns:cc="http://creativecommons.org/ns#"
   xmlns:rdf="http://www.w3.org/1999/02/22-rdf-syntax-ns#"
   xmlns:svg="http://www.w3.org/2000/svg"
   xmlns="http://www.w3.org/2000/svg"
   xmlns:sodipodi="http://sodipodi.sourceforge.net/DTD/sodipodi-0.dtd"
   xmlns:inkscape="http://www.inkscape.org/namespaces/inkscape"
   enable-background="new 0 0 128 128"
   id="Слой_1"
   version="1.1"
   viewBox="0 0 128 128"
   xml:space="preserve"
   sodipodi:docname="icon-profissao-eletricista.svg"
   inkscape:version="0.92.3 (2405546, 2018-03-11)"><metadata
     id="metadata4791"><rdf:RDF><cc:Work
         rdf:about=""><dc:format>image/svg+xml</dc:format><dc:type
           rdf:resource="http://purl.org/dc/dcmitype/StillImage" /></cc:Work></rdf:RDF></metadata><defs
     id="defs4789" /><sodipodi:namedview
     pagecolor="#ffffff"
     bordercolor="#666666"
     borderopacity="1"
     objecttolerance="10"
     gridtolerance="10"
     guidetolerance="10"
     inkscape:pageopacity="0"
     inkscape:pageshadow="2"
     inkscape:window-width="761"
     inkscape:window-height="417"
     id="namedview4787"
     showgrid="false"
     inkscape:zoom="1.9275362"
     inkscape:cx="64"
     inkscape:cy="64"
     inkscape:window-x="95"
     inkscape:window-y="55"
     inkscape:window-maximized="0"
     inkscape:current-layer="Слой_1" /><g
     id="g4784"
     style="fill:#dcdcdc"><path
       d="M91,2H37v54h54V2z M87,52H41V6h46V52z"
       fill="#3EBBC4"
       id="path4774"
       style="fill:#dcdcdc" /><path
       d="M64,46c9.4,0,17-7.6,17-17s-7.6-17-17-17s-17,7.6-17,17S54.6,46,64,46z M64,16c7.2,0,13,5.8,13,13   s-5.8,13-13,13s-13-5.8-13-13S56.8,16,64,16z"
       fill="#3EBBC4"
       id="path4776"
       style="fill:#dcdcdc" /><circle
       cx="58"
       cy="29"
       fill="#3EBBC4"
       r="3"
       id="circle4778"
       style="fill:#dcdcdc" /><circle
       cx="70"
       cy="29"
       fill="#3EBBC4"
       r="3"
       id="circle4780"
       style="fill:#dcdcdc" /><path
       d="M66,124v-17.7h1.8c5.2,0,9.5-4.3,9.5-9.5V82H79v-4h-6.2V64.5h-4V78h-9.5V64.5h-4V78H49v4h1.8v14.7   c0,5.2,4.3,9.5,9.5,9.5H62V124H66z M54.8,96.8V82h18.5v14.7c0,3-2.5,5.5-5.5,5.5h-7.5C57.2,102.3,54.8,99.8,54.8,96.8z"
       fill="#3EBBC4"
       id="path4782"
       style="fill:#dcdcdc" /></g></svg>