<?xml version="1.0" encoding="UTF-8" standalone="no"?>
<svg
   xmlns:dc="http://purl.org/dc/elements/1.1/"
   xmlns:cc="http://creativecommons.org/ns#"
   xmlns:rdf="http://www.w3.org/1999/02/22-rdf-syntax-ns#"
   xmlns:svg="http://www.w3.org/2000/svg"
   xmlns="http://www.w3.org/2000/svg"
   xmlns:sodipodi="http://sodipodi.sourceforge.net/DTD/sodipodi-0.dtd"
   xmlns:inkscape="http://www.inkscape.org/namespaces/inkscape"
   enable-background="new 0 0 128 128"
   id="Слой_1"
   version="1.1"
   viewBox="0 0 128 128"
   xml:space="preserve"
   sodipodi:docname="icon-profissao-encanador.svg"
   inkscape:version="0.92.3 (2405546, 2018-03-11)"><metadata
     id="metadata4983"><rdf:RDF><cc:Work
         rdf:about=""><dc:format>image/svg+xml</dc:format><dc:type
           rdf:resource="http://purl.org/dc/dcmitype/StillImage" /></cc:Work></rdf:RDF></metadata><defs
     id="defs4981" /><sodipodi:namedview
     pagecolor="#ffffff"
     bordercolor="#666666"
     borderopacity="1"
     objecttolerance="10"
     gridtolerance="10"
     guidetolerance="10"
     inkscape:pageopacity="0"
     inkscape:pageshadow="2"
     inkscape:window-width="1299"
     inkscape:window-height="713"
     id="namedview4979"
     showgrid="false"
     inkscape:zoom="2.4769764"
     inkscape:cx="66.275449"
     inkscape:cy="49.12974"
     inkscape:window-x="67"
     inkscape:window-y="27"
     inkscape:window-maximized="1"
     inkscape:current-layer="Слой_1" /><g
     opacity="0.3"
     id="g4964"
     style="fill:#e8e8e8;fill-opacity:1"><rect
       fill="#3EBBC4"
       height="16.1"
       width="4"
       x="107"
       y="16"
       id="rect4962"
       style="fill:#e8e8e8;fill-opacity:1" /></g><g
     id="g4970"
     style="fill:#e8e8e8;fill-opacity:1"><g
       id="g4968"
       style="fill:#e8e8e8;fill-opacity:1"><path
         d="M16,34"
         fill="none"
         stroke="#3EBBC4"
         stroke-miterlimit="10"
         stroke-width="4"
         id="path4966"
         style="fill:#e8e8e8;fill-opacity:1" /></g></g><g
     id="g4976"
     style="fill:#e8e8e8;fill-opacity:1"><path
       d="M122.5,18V2h-33v16H94v53h-4.5v16h4.3c-1.4,8.6-8.9,15-17.8,15c-8.9,0-16.3-6.5-17.7-15h4.2V71h-4.6   C56.4,49.9,39.2,33,18,32v-4H2v33h16v-4.9c8,0.9,14.4,7,15.7,14.9h-4.2v16h4.6c1.5,21.8,19.7,39,41.9,39c22.3,0,40.4-17,41.9-39   h4.6V71H118V18H122.5z M14,57H6V32h8V57z M18,52.1V36c19,1,34.4,16,35.9,34.9H37.8C36.4,60.9,28.2,53,18,52.1z M33.5,83v-8h25v8   H33.5z M76,122c-20,0-36.4-15.5-37.9-35h16.1c1.5,10.7,10.7,19,21.8,19c11,0,20.3-8.2,21.8-19h16.1C112.4,106.7,96,122,76,122z    M118.5,75v8h-25v-8H118.5z M98,71V18h16v53H98z M93.5,14V6h25v8H93.5z"
       fill="#3EBBC4"
       id="path4972"
       style="fill:#e8e8e8;fill-opacity:1" /><path
       d="M89.8,116.5c8.3-3.5,15-10.4,18.3-18.7l-3.7-1.5c-2.9,7.4-8.8,13.4-16.1,16.5L89.8,116.5z"
       fill="#3EBBC4"
       opacity="0.3"
       id="path4974"
       style="fill:#e8e8e8;fill-opacity:1" /></g></svg>