<?xml version="1.0" encoding="iso-8859-1"?>
<!-- Generator: Adobe Illustrator 19.0.0, SVG Export Plug-In . SVG Version: 6.00 Build 0)  -->
<svg version="1.1" id="Layer_1" xmlns="http://www.w3.org/2000/svg" xmlns:xlink="http://www.w3.org/1999/xlink" x="0px" y="0px"
	 viewBox="0 0 511.999 511.999" style="enable-background:new 0 0 511.999 511.999;" xml:space="preserve">
<g>
	<g>
		<path d="M10.585,462.353h-0.137C4.679,462.353,0,467.03,0,472.801c0,5.77,4.679,10.448,10.448,10.448h0.137
			c5.769,0,10.448-4.678,10.448-10.448C21.033,467.03,16.354,462.353,10.585,462.353z"/>
	</g>
</g>
<g>
	<g>
		<path d="M501.501,462.345h-0.137c-5.769,0-10.448,4.677-10.448,10.448c0,5.77,4.679,10.448,10.448,10.448h0.137
			c5.769,0,10.448-4.678,10.448-10.448C511.949,467.022,507.27,462.345,501.501,462.345z"/>
	</g>
</g>
<g>
	<g>
		<path d="M294.078,183.385c-6.439,0-11.679,5.239-11.679,11.679c0,6.439,5.24,11.678,11.679,11.678
			c6.439,0,11.677-5.239,11.678-11.678C305.756,188.623,300.517,183.385,294.078,183.385z"/>
	</g>
</g>
<g>
	<g>
		<path d="M217.871,183.385c-6.439,0-11.678,5.239-11.678,11.679c0,6.439,5.239,11.678,11.678,11.678
			c6.439,0,11.679-5.239,11.679-11.678C229.549,188.623,224.31,183.385,217.871,183.385z"/>
	</g>
</g>
<g>
	<g>
		<path d="M266.228,232.61h-20.419c-5.769,0-10.448,4.678-10.448,10.448c0,11.39,9.267,20.658,20.658,20.658
			s20.657-9.266,20.658-20.658C276.676,237.288,271.997,232.61,266.228,232.61z"/>
	</g>
</g>
<g>
	<g>
		<path d="M221.474,408.325c-3.825-3.825-8.591-6.366-13.777-7.409c0.444-9.169-2.827-18.486-9.814-25.472
			c-13.139-13.138-34.517-13.138-47.656,0c-13.138,13.139-13.138,34.518,0,47.656c6.57,6.57,15.199,9.853,23.829,9.853
			c0.547,0,1.096-0.014,1.643-0.041c1.044,5.185,3.584,9.952,7.409,13.777c5.124,5.124,11.937,7.946,19.182,7.946
			c7.246,0,14.059-2.822,19.181-7.946c0,0,0,0,0.001,0c5.124-5.124,7.946-11.937,7.946-19.182
			C229.421,420.26,226.599,413.448,221.474,408.325z M183.109,408.325c-4.992,4.992-13.113,4.992-18.104,0
			c-4.991-4.991-4.991-13.113,0-18.104c2.496-2.496,5.773-3.744,9.052-3.744s6.556,1.247,9.052,3.744
			C188.1,395.211,188.1,403.334,183.109,408.325z M206.7,431.914c-1.179,1.177-2.743,1.826-4.408,1.826s-3.229-0.649-4.408-1.826
			c-1.176-1.177-1.825-2.743-1.825-4.407c0-1.663,0.648-3.226,1.823-4.404c0.001-0.001,0.002-0.002,0.003-0.003
			c0.001-0.001,0.002-0.002,0.003-0.004c1.176-1.174,2.739-1.822,4.403-1.822c1.665,0,3.229,0.649,4.408,1.826
			c1.176,1.177,1.825,2.743,1.825,4.407C208.525,429.172,207.876,430.736,206.7,431.914z"/>
	</g>
</g>
<g>
	<g>
		<path d="M106.635,216.818H10.514c-5.769,0-10.448,4.678-10.448,10.448v91.052c0,11.924,9.701,21.625,21.624,21.625h13.368v61.209
			c0,12.761,10.383,23.143,23.143,23.143c12.76,0,23.142-10.382,23.142-23.143v-61.209h14.113c11.924,0,21.625-9.701,21.625-21.625
			v-91.052C117.083,221.496,112.404,216.818,106.635,216.818z M60.449,401.152h-0.001c0,1.218-1.028,2.247-2.246,2.247
			c-1.218,0-2.247-1.029-2.247-2.247v-61.209h4.495V401.152z M96.187,318.318c0,0.375-0.354,0.729-0.73,0.729H21.69
			c-0.374,0-0.728-0.354-0.728-0.729v-14.914h75.225V318.318z M96.187,282.507H20.962v-44.793h10.433v26.248
			c0,5.77,4.679,10.448,10.448,10.448s10.448-4.677,10.448-10.448v-26.248h11.493v26.248c0,5.77,4.679,10.448,10.448,10.448
			s10.448-4.677,10.448-10.448v-26.248h11.507V282.507z"/>
	</g>
</g>
<g>
	<g>
		<path d="M262.674,67.413c-5.769,0-10.448,4.678-10.448,10.448s4.679,10.448,10.448,10.448c18.862,0,34.796,11.776,34.796,25.716
			c0,5.77,4.679,10.448,10.448,10.448s10.448-4.678,10.448-10.448C318.365,88.323,293.382,67.413,262.674,67.413z"/>
	</g>
</g>
<g>
	<g>
		<path d="M414.708,183.323c-5.769,0-10.448,4.678-10.448,10.448v0.137c0,5.77,4.679,10.448,10.448,10.448
			c5.769,0,10.448-4.678,10.448-10.448v-0.137C425.156,188.001,420.477,183.323,414.708,183.323z"/>
	</g>
</g>
<g>
	<g>
		<path d="M425.156,89.416c0-5.77-4.679-10.448-10.448-10.448c-5.77,0-10.448,4.678-10.448,10.448l0.002,70.541
			c0,5.77,4.679,10.448,10.448,10.448c5.77,0,10.448-4.679,10.448-10.448L425.156,89.416z"/>
	</g>
</g>
<g>
	<g>
		<path d="M490.916,319.954l-65.752,0.004l0.008-21.708l-0.001-70.541c0-5.77-4.679-10.448-10.448-10.448
			c-5.77,0-10.448,4.678-10.448,10.448l0.001,70.537l-0.008,21.708c0,11.522,9.374,20.896,20.896,20.896h65.752
			c0.05,0,0.137,0.057,0.188,0.11v68.101h-4.774v-11.493c0-5.77-4.679-10.448-10.448-10.448h-66.499
			c-1.676-18.631-13.403-35.681-29.673-42.46l-67.241-28.016c-2.391-0.996-3.936-3.313-3.936-5.904v-14.516v-1.753l27.311-15.659
			c0.19-0.11,0.377-0.225,0.56-0.346c13.674-9.031,22.653-25.091,24.019-42.961c0.021-0.264,0.03-0.531,0.03-0.796v-8.674
			c13.568-4.413,23.402-17.181,23.402-32.202s-9.835-27.788-23.402-32.202v-28.349c0-57.638-46.79-104.531-104.428-104.531
			c-47.095,0-87.009,31.309-100.039,74.203c-11.298-12.496-27.415-20.596-45.108-21.039c-2.855-0.061-5.625,1.033-7.649,3.057
			c-2.024,2.024-3.128,4.788-3.057,7.649c0.529,21.096,11.949,39.947,28.727,51.062c-16.778,11.116-28.197,29.966-28.726,51.063
			c-0.071,2.861,1.033,5.626,3.057,7.65c1.962,1.961,4.621,3.06,7.388,3.06c0.087,0,0.174-0.001,0.261-0.003
			c6.339-0.159,12.473-1.307,18.259-3.282c2.866,11.264,11.388,20.293,22.357,23.86v8.674c0,0.265,0.01,0.532,0.03,0.796
			c1.372,17.943,10.288,34.003,23.851,42.961c0.187,0.123,0.377,0.24,0.573,0.352l27.467,15.702v16.22
			c0,2.59-1.545,4.907-3.936,5.904l-67.241,28.017c-17.597,7.332-29.887,26.677-29.887,47.041v70.644H44.436
			c-5.769,0-10.448,4.677-10.448,10.448c0,5.77,4.679,10.448,10.448,10.448h423.178c5.769,0,10.448-4.678,10.448-10.448
			c0-5.77-4.679-10.448-10.448-10.448h-58.016v-10.448h66.284c5.769,0,10.448-4.678,10.448-10.448v-11.493h15.222
			c5.769,0,10.448-4.678,10.448-10.448v-78.658C512,329.328,502.542,319.954,490.916,319.954z M256.026,49.648
			c46.103,0,83.612,37.492,83.635,83.59H172.391C172.413,87.14,209.923,49.648,256.026,49.648z M123.629,105.373
			c11.619,4.316,20.986,13.682,25.303,25.301C137.314,126.359,127.946,116.99,123.629,105.373z M123.629,181.999
			c4.316-11.62,13.683-20.987,25.302-25.303C144.615,168.316,135.249,177.683,123.629,181.999z M186.636,260.856
			c-7.984-5.406-13.284-15.292-14.245-26.569v-17.052c0-5.77-4.679-10.448-10.448-10.448c-7.143,0-12.954-5.812-12.954-12.954
			c0-0.863-0.116-1.697-0.313-2.499c11.438-9.271,19.682-22.39,22.579-37.2h168.304v16.297c0,5.77,4.679,10.448,10.448,10.448
			c7.143,0,12.954,5.812,12.954,12.954s-5.812,12.954-12.954,12.954c-5.769,0-10.448,4.677-10.448,10.448v17.05
			c-0.949,11.048-6.442,21.173-14.418,26.574l-56.095,32.164c-0.19,0.11-0.377,0.225-0.56,0.346c-7.834,5.173-17.184,5.173-25.018,0
			c-0.187-0.123-0.377-0.241-0.573-0.352L186.636,260.856z M287.638,306.451v41.818c0,17.379-14.181,31.518-31.612,31.518
			c-17.487,0-31.714-14.139-31.714-31.518v-41.805l7.939,4.539c7.333,4.763,15.529,7.144,23.725,7.144
			c8.198,0,16.396-2.383,23.731-7.148L287.638,306.451z M388.703,462.345h-0.001H123.247v-70.644
			c0-11.776,7.321-23.707,17.029-27.753l63.14-26.308v10.629c0,28.901,23.601,52.414,52.609,52.414
			c28.953,0,52.508-23.513,52.508-52.414V337.64l63.141,26.308c8.445,3.519,15.08,13.009,16.662,23.171h-70.176
			c-5.769,0-10.448,4.677-10.448,10.448v11.493h-11.997c-5.769,0-10.448,4.677-10.448,10.448c0,5.77,4.679,10.448,10.448,10.448
			h11.997v11.493c0,5.77,4.679,10.448,10.448,10.448h70.541V462.345z M465.435,431.001h-0.001H328.609v-22.985h136.825V431.001z"/>
	</g>
</g>
<g>
</g>
<g>
</g>
<g>
</g>
<g>
</g>
<g>
</g>
<g>
</g>
<g>
</g>
<g>
</g>
<g>
</g>
<g>
</g>
<g>
</g>
<g>
</g>
<g>
</g>
<g>
</g>
<g>
</g>
</svg>
