<?xml version="1.0" ?><!DOCTYPE svg  PUBLIC '-//W3C//DTD SVG 1.1//EN'  'http://www.w3.org/Graphics/SVG/1.1/DTD/svg11.dtd'><svg enable-background="new 0 0 128 128" id="Слой_1" version="1.1" viewBox="0 0 128 128" xml:space="preserve" xmlns="http://www.w3.org/2000/svg" xmlns:xlink="http://www.w3.org/1999/xlink"><g><path d="M126,63.2V36.6h-5V24v-2V2h-4v20H30.3v14.6h-2.2v4h2.2v14.6h20.2V126h4V55.2H121V40.6h1v19.2l-50,8.3v20.5   h-5.8V126h15.7V88.7H76V71.5L126,63.2z M117,51.2H34.3V26H117V51.2z M77.8,122h-7.7V92.7h7.7V122z" fill="#3EBBC4"/><g opacity="0.3"><rect fill="#3EBBC4" height="4" width="4" x="36.5" y="72"/></g><g opacity="0.3"><rect fill="#3EBBC4" height="4" width="4" x="102.5" y="2"/></g><g opacity="0.3"><rect fill="#3EBBC4" height="4" width="4" x="82.5" y="12"/></g><g opacity="0.3"><rect fill="#3EBBC4" height="4" width="4" x="42.5" y="2"/></g><g opacity="0.3"><rect fill="#3EBBC4" height="4" width="4" x="19.5" y="12"/></g><g opacity="0.3"><rect fill="#3EBBC4" height="20" width="4" x="36.5" y="106"/></g><g opacity="0.3"><rect fill="#3EBBC4" height="4" width="4" x="3" y="52"/></g><g opacity="0.3"><rect fill="#3EBBC4" height="4" width="4" x="3" y="122"/></g><g opacity="0.3"><rect fill="#3EBBC4" height="20" width="4" x="3" y="86"/></g><g opacity="0.3"><rect fill="#3EBBC4" height="20" width="4" x="3" y="3"/></g><g opacity="0.3"><rect fill="#3EBBC4" height="4" width="4" x="19.3" y="113.2"/></g><g opacity="0.3"><rect fill="#3EBBC4" height="20" width="4" x="19.3" y="63.2"/></g></g></svg>