<?xml version="1.0" ?><!DOCTYPE svg  PUBLIC '-//W3C//DTD SVG 1.1//EN'  'http://www.w3.org/Graphics/SVG/1.1/DTD/svg11.dtd'><svg enable-background="new 0 0 128 128" id="Слой_1" version="1.1" viewBox="0 0 128 128" xml:space="preserve" xmlns="http://www.w3.org/2000/svg" xmlns:xlink="http://www.w3.org/1999/xlink"><g><path d="M91,2H37v54h54V2z M87,52H41V6h46V52z" fill="#3EBBC4"/><path d="M64,46c9.4,0,17-7.6,17-17s-7.6-17-17-17s-17,7.6-17,17S54.6,46,64,46z M64,16c7.2,0,13,5.8,13,13   s-5.8,13-13,13s-13-5.8-13-13S56.8,16,64,16z" fill="#3EBBC4"/><circle cx="58" cy="29" fill="#3EBBC4" r="3"/><circle cx="70" cy="29" fill="#3EBBC4" r="3"/><path d="M66,124v-17.7h1.8c5.2,0,9.5-4.3,9.5-9.5V82H79v-4h-6.2V64.5h-4V78h-9.5V64.5h-4V78H49v4h1.8v14.7   c0,5.2,4.3,9.5,9.5,9.5H62V124H66z M54.8,96.8V82h18.5v14.7c0,3-2.5,5.5-5.5,5.5h-7.5C57.2,102.3,54.8,99.8,54.8,96.8z" fill="#3EBBC4"/></g></svg>