<?xml version="1.0" ?><!DOCTYPE svg  PUBLIC '-//W3C//DTD SVG 1.1//EN'  'http://www.w3.org/Graphics/SVG/1.1/DTD/svg11.dtd'><svg enable-background="new 0 0 128 128" id="Слой_1" version="1.1" viewBox="0 0 128 128" xml:space="preserve" xmlns="http://www.w3.org/2000/svg" xmlns:xlink="http://www.w3.org/1999/xlink"><g><rect fill="#3EBBC4" height="4" width="10" x="44" y="74.5"/><rect fill="#3EBBC4" height="4" width="10" x="44" y="66.5"/><rect fill="#3EBBC4" height="4" width="10" x="44" y="58.5"/><path d="M8,95.5v4h15v18h4v-18h93v-4H27v-3h4h8h21.8l18-18l14.2,0c9.4,0,17-7.6,17-17v-32   c-0.1-9.2-7.8-16.8-17-16.8L33,8.5c-9.4,0-17,7.6-17,17v36.9h0l0,30h7v3H8z M27,88.5v-26h1c1.7,0,3,1.3,3,3v23H27z M20,25.5   c0-7.2,5.8-13,13-13l60,0.2c7.1,0,12.9,5.7,13,12.8v32c0,7.2-5.8,13-13,13l-15.8,0l-18,18H39h-4v-23c0-3.9-3.1-7-7-7h-8V25.5z    M20,88.5l0-26h3v26H20z" fill="#3EBBC4"/><path d="M44,42.5h37c6.6,0,12-5.4,12-12s-5.4-12-12-12H50c-3.7,0-6.9,2.6-7.8,6H32v6C32,37.1,37.4,42.5,44,42.5z    M50,22.5h2v2h-5.4C47.3,23.3,48.5,22.5,50,22.5z M36,28.5h8h2h10v-6h25c4.4,0,8,3.6,8,8s-3.6,8-8,8H44c-4.4,0-8-3.6-8-8V28.5z" fill="#3EBBC4"/></g></svg>